<?xml version="1.0" encoding="UTF-8" standalone="no"?>
<!-- Created with Inkscape (http://www.inkscape.org/) -->

<svg
   inkscape:export-ydpi="96"
   inkscape:export-xdpi="96"
   inkscape:export-filename="Template.png"
   width="128"
   height="128"
   id="svg11300"
   sodipodi:version="0.32"
   inkscape:version="1.2.2 (b0a8486541, 2022-12-01)"
   sodipodi:docname="icon.svg"
   inkscape:output_extension="org.inkscape.output.svg.inkscape"
   version="1.0"
   style="display:inline;enable-background:new"
   viewBox="0 0 128 128"
   xml:space="preserve"
   xmlns:inkscape="http://www.inkscape.org/namespaces/inkscape"
   xmlns:sodipodi="http://sodipodi.sourceforge.net/DTD/sodipodi-0.dtd"
   xmlns:xlink="http://www.w3.org/1999/xlink"
   xmlns="http://www.w3.org/2000/svg"
   xmlns:svg="http://www.w3.org/2000/svg"
   xmlns:rdf="http://www.w3.org/1999/02/22-rdf-syntax-ns#"
   xmlns:cc="http://creativecommons.org/ns#"
   xmlns:dc="http://purl.org/dc/elements/1.1/"><title
     id="title4162">Adwaita Icon Template</title><defs
     id="defs3"><linearGradient
       inkscape:collect="always"
       id="linearGradient45390"><stop
         style="stop-color:#a0b5cb;stop-opacity:1;"
         offset="0"
         id="stop45386" /><stop
         style="stop-color:#cad7e7;stop-opacity:1;"
         offset="0.5"
         id="stop45394" /><stop
         style="stop-color:#cad7e7;stop-opacity:1;"
         offset="0.75"
         id="stop45396" /><stop
         style="stop-color:#a0b5cb;stop-opacity:1;"
         offset="1"
         id="stop45388" /></linearGradient><linearGradient
       inkscape:collect="always"
       id="linearGradient44747"><stop
         style="stop-color:#a0b5cb;stop-opacity:1;"
         offset="0"
         id="stop44743" /><stop
         style="stop-color:#cedced;stop-opacity:1;"
         offset="0.11853539"
         id="stop44751" /><stop
         style="stop-color:#cedced;stop-opacity:1;"
         offset="0.87642819"
         id="stop44753" /><stop
         style="stop-color:#a0b5cb;stop-opacity:1;"
         offset="1"
         id="stop44745" /></linearGradient><linearGradient
       y2="236"
       x2="96"
       y1="236"
       x1="32"
       gradientTransform="translate(604.81684,170.58641)"
       gradientUnits="userSpaceOnUse"
       id="linearGradient1099"
       xlink:href="#linearGradient1036" /><linearGradient
       id="linearGradient1036"><stop
         id="stop1032"
         offset="0"
         style="stop-color:#d5d3cf;stop-opacity:1;" /><stop
         id="stop1034"
         offset="1"
         style="stop-color:#f6f5f4;stop-opacity:1" /></linearGradient><radialGradient
       r="32"
       fy="-76"
       fx="-244"
       cy="-76"
       cx="-244"
       gradientTransform="matrix(0.88333331,0,0,0.88333331,-460.35018,463.11973)"
       gradientUnits="userSpaceOnUse"
       id="radialGradient1103"
       xlink:href="#linearGradient1069" /><linearGradient
       id="linearGradient1069"><stop
         id="stop1065"
         offset="0"
         style="stop-color:#d5d3cf;stop-opacity:1" /><stop
         id="stop1067-1"
         offset="1"
         style="stop-color:#949390;stop-opacity:1" /></linearGradient><linearGradient
       gradientUnits="userSpaceOnUse"
       y2="232"
       x2="64"
       y1="262.5"
       x1="64"
       id="linearGradient1027"
       xlink:href="#linearGradient1025"
       gradientTransform="translate(-470.5864,432.81685)" /><linearGradient
       id="linearGradient1025"><stop
         id="stop1021"
         offset="0"
         style="stop-color:#9a9996;stop-opacity:1" /><stop
         id="stop1023"
         offset="1"
         style="stop-color:#77767b;stop-opacity:1" /></linearGradient><inkscape:path-effect
       effect="spiro"
       id="path-effect35304-9"
       is_visible="true" /><clipPath
       clipPathUnits="userSpaceOnUse"
       id="clipPath1609-7"><path
         sodipodi:nodetypes="cccccc"
         inkscape:connector-curvature="0"
         id="path1611-5"
         d="m 252,116 28,-28 v -8 h -36 v 36 z"
         style="fill:#e74747;stroke:none;stroke-width:0.25px;stroke-linecap:butt;stroke-linejoin:miter;stroke-opacity:1" /></clipPath><linearGradient
       inkscape:collect="always"
       xlink:href="#linearGradient44747"
       id="linearGradient44749"
       x1="11.995266"
       y1="278.18136"
       x2="116.00479"
       y2="278.18136"
       gradientUnits="userSpaceOnUse" /><linearGradient
       inkscape:collect="always"
       xlink:href="#linearGradient45390"
       id="linearGradient45392"
       x1="11.995266"
       y1="278.18136"
       x2="116.00479"
       y2="278.18136"
       gradientUnits="userSpaceOnUse" /><clipPath
       clipPathUnits="userSpaceOnUse"
       id="clipPath51097"><g
         id="g51101"
         transform="translate(44,6)"><path
           id="path51099"
           style="color:#000000;fill:#000000;stroke-linecap:round;-inkscape-stroke:none"
           d="m 143.09961,176.90039 a 0.2,0.2 0 0 0 -0.19922,0.19922 V 178 H 142 a 0.2,0.2 0 0 0 -0.19922,0.19922 0.2,0.2 0 0 0 0.19922,0.20117 h 0.90039 V 180 H 142 a 0.2,0.2 0 0 0 -0.19922,0.19922 0.2,0.2 0 0 0 0.19922,0.20117 h 0.90039 V 182 H 142 a 0.2,0.2 0 0 0 -0.19922,0.19922 0.2,0.2 0 0 0 0.19922,0.20117 h 0.90039 v 1.40039 H 142 A 0.2,0.2 0 0 0 141.80078,184 0.2,0.2 0 0 0 142,184.19922 h 0.90039 v 1.60156 H 142 A 0.2,0.2 0 0 0 141.80078,186 0.2,0.2 0 0 0 142,186.19922 h 0.90039 v 1.60156 H 142 A 0.2,0.2 0 0 0 141.80078,188 0.2,0.2 0 0 0 142,188.19922 h 0.90039 v 0.90039 a 0.2,0.2 0 0 0 0.19922,0.20117 0.2,0.2 0 0 0 0.20117,-0.20117 v -0.90039 h 1.59961 v 0.90039 a 0.2,0.2 0 0 0 0.19922,0.20117 0.2,0.2 0 0 0 0.20117,-0.20117 v -0.90039 h 1.59961 v 0.90039 a 0.2,0.2 0 0 0 0.19922,0.20117 0.2,0.2 0 0 0 0.20117,-0.20117 v -0.90039 h 1.39844 v 0.90039 a 0.2,0.2 0 0 0 0.20117,0.20117 0.2,0.2 0 0 0 0.19922,-0.20117 v -0.90039 h 1.59961 v 0.90039 a 0.2,0.2 0 0 0 0.20117,0.20117 0.2,0.2 0 0 0 0.19922,-0.20117 v -0.90039 h 1.59961 v 0.90039 a 0.2,0.2 0 0 0 0.20117,0.20117 0.2,0.2 0 0 0 0.19922,-0.20117 v -0.90039 H 154 A 0.2,0.2 0 0 0 154.19922,188 0.2,0.2 0 0 0 154,187.80078 h -0.90039 v -1.60156 H 154 A 0.2,0.2 0 0 0 154.19922,186 0.2,0.2 0 0 0 154,185.80078 h -0.90039 v -1.60156 H 154 A 0.2,0.2 0 0 0 154.19922,184 0.2,0.2 0 0 0 154,183.80078 h -0.90039 v -1.40039 H 154 a 0.2,0.2 0 0 0 0.19922,-0.20117 A 0.2,0.2 0 0 0 154,182 h -0.90039 v -1.59961 H 154 a 0.2,0.2 0 0 0 0.19922,-0.20117 A 0.2,0.2 0 0 0 154,180 h -0.90039 v -1.59961 H 154 a 0.2,0.2 0 0 0 0.19922,-0.20117 A 0.2,0.2 0 0 0 154,178 h -0.90039 v -0.90039 a 0.2,0.2 0 0 0 -0.19922,-0.19922 0.2,0.2 0 0 0 -0.20117,0.19922 V 178 h -1.59961 v -0.90039 a 0.2,0.2 0 0 0 -0.19922,-0.19922 0.2,0.2 0 0 0 -0.20117,0.19922 V 178 h -1.59961 v -0.90039 a 0.2,0.2 0 0 0 -0.19922,-0.19922 0.2,0.2 0 0 0 -0.20117,0.19922 V 178 h -1.39844 v -0.90039 a 0.2,0.2 0 0 0 -0.20117,-0.19922 0.2,0.2 0 0 0 -0.19922,0.19922 V 178 h -1.59961 v -0.90039 a 0.2,0.2 0 0 0 -0.20117,-0.19922 0.2,0.2 0 0 0 -0.19922,0.19922 V 178 h -1.59961 v -0.90039 a 0.2,0.2 0 0 0 -0.20117,-0.19922 z m 0.20117,1.5 h 1.59961 V 180 h -1.59961 z m 2,0 h 1.59961 V 180 h -1.59961 z m 2,0 h 1.39844 V 180 h -1.39844 z m 1.79883,0 h 1.59961 V 180 h -1.59961 z m 2,0 h 1.59961 V 180 h -1.59961 z m -7.79883,2 h 1.59961 V 182 h -1.59961 z m 2,0 h 1.59961 V 182 h -1.59961 z m 2,0 h 1.39844 V 182 h -1.39844 z m 1.79883,0 h 1.59961 V 182 h -1.59961 z m 2,0 h 1.59961 V 182 h -1.59961 z m -7.79883,2 h 1.59961 v 1.40039 h -1.59961 z m 2,0 h 1.59961 v 1.40039 h -1.59961 z m 2,0 h 1.39844 v 1.40039 h -1.39844 z m 1.79883,0 h 1.59961 v 1.40039 h -1.59961 z m 2,0 h 1.59961 v 1.40039 h -1.59961 z m -7.79883,1.79883 h 1.59961 v 1.60156 h -1.59961 z m 2,0 h 1.59961 v 1.60156 h -1.59961 z m 2,0 h 1.39844 v 1.60156 h -1.39844 z m 1.79883,0 h 1.59961 v 1.60156 h -1.59961 z m 2,0 h 1.59961 v 1.60156 h -1.59961 z m -7.79883,2 h 1.59961 v 1.60156 h -1.59961 z m 2,0 h 1.59961 v 1.60156 h -1.59961 z m 2,0 h 1.39844 v 1.60156 h -1.39844 z m 1.79883,0 h 1.59961 v 1.60156 h -1.59961 z m 2,0 h 1.59961 v 1.60156 h -1.59961 z" /></g></clipPath></defs><sodipodi:namedview
     stroke="#ef2929"
     fill="#f57900"
     id="base"
     pagecolor="#ffffff"
     bordercolor="#666666"
     borderopacity="0.25490196"
     inkscape:pageopacity="0.0"
     inkscape:pageshadow="2"
     inkscape:zoom="4.0000002"
     inkscape:cx="158.99999"
     inkscape:cy="50.999997"
     inkscape:current-layer="layer9"
     showgrid="false"
     inkscape:grid-bbox="true"
     inkscape:document-units="px"
     inkscape:showpageshadow="false"
     inkscape:window-width="1920"
     inkscape:window-height="1011"
     inkscape:window-x="1280"
     inkscape:window-y="32"
     width="400px"
     height="300px"
     inkscape:snap-nodes="true"
     inkscape:snap-bbox="true"
     objecttolerance="7"
     gridtolerance="12"
     guidetolerance="13"
     inkscape:window-maximized="1"
     inkscape:pagecheckerboard="false"
     showguides="false"
     inkscape:guide-bbox="true"
     inkscape:locked="false"
     inkscape:measure-start="0,0"
     inkscape:measure-end="0,0"
     inkscape:object-nodes="true"
     inkscape:bbox-nodes="true"
     inkscape:snap-global="true"
     inkscape:object-paths="true"
     inkscape:snap-intersection-paths="true"
     inkscape:snap-bbox-edge-midpoints="true"
     inkscape:snap-bbox-midpoints="true"
     showborder="false"
     inkscape:snap-center="true"
     inkscape:snap-object-midpoints="true"
     inkscape:snap-midpoints="true"
     inkscape:snap-smooth-nodes="true"
     inkscape:snap-text-baseline="true"
     inkscape:deskcolor="#d1d1d1"><inkscape:grid
       type="xygrid"
       id="grid5883"
       spacingx="2"
       spacingy="2"
       enabled="true"
       visible="true"
       empspacing="4"
       originx="0"
       originy="0" /><sodipodi:guide
       position="64,8"
       orientation="0,1"
       id="guide1073"
       inkscape:locked="false"
       inkscape:label=""
       inkscape:color="rgb(0,0,255)" /><sodipodi:guide
       position="12,64"
       orientation="1,0"
       id="guide1075"
       inkscape:locked="false"
       inkscape:label=""
       inkscape:color="rgb(0,0,255)" /><sodipodi:guide
       position="64,104"
       orientation="0,1"
       id="guide1099"
       inkscape:locked="false"
       inkscape:label=""
       inkscape:color="rgb(0,0,255)" /><sodipodi:guide
       position="64,128"
       orientation="0,1"
       id="guide993"
       inkscape:locked="false"
       inkscape:label=""
       inkscape:color="rgb(0,0,255)" /><sodipodi:guide
       position="104,64"
       orientation="1,0"
       id="guide995"
       inkscape:locked="false"
       inkscape:label=""
       inkscape:color="rgb(0,0,255)" /><sodipodi:guide
       position="9.2651362e-08,64"
       orientation="1,0"
       id="guide867"
       inkscape:locked="false"
       inkscape:label=""
       inkscape:color="rgb(0,0,255)" /><sodipodi:guide
       position="120,64"
       orientation="1,0"
       id="guide869"
       inkscape:locked="false"
       inkscape:label=""
       inkscape:color="rgb(0,0,255)" /><sodipodi:guide
       position="64,116"
       orientation="0,1"
       id="guide871"
       inkscape:locked="false"
       inkscape:label=""
       inkscape:color="rgb(0,0,255)" /><inkscape:grid
       type="xygrid"
       id="grid873"
       spacingx="1"
       spacingy="1"
       empspacing="8"
       color="#000000"
       opacity="0.49019608"
       empcolor="#000000"
       empopacity="0.08627451"
       dotted="true" /><sodipodi:guide
       position="24,64"
       orientation="1,0"
       id="guide877"
       inkscape:locked="false"
       inkscape:label=""
       inkscape:color="rgb(0,0,255)" /><sodipodi:guide
       position="116,64"
       orientation="1,0"
       id="guide879"
       inkscape:locked="false"
       inkscape:label=""
       inkscape:color="rgb(0,0,255)" /><sodipodi:guide
       position="64,120"
       orientation="0,1"
       id="guide881"
       inkscape:locked="false"
       inkscape:label=""
       inkscape:color="rgb(0,0,255)" /><sodipodi:guide
       position="64,12"
       orientation="0,1"
       id="guide883"
       inkscape:locked="false"
       inkscape:label=""
       inkscape:color="rgb(0,0,255)" /><sodipodi:guide
       position="8,64"
       orientation="1,0"
       id="guide885"
       inkscape:locked="false"
       inkscape:label=""
       inkscape:color="rgb(0,0,255)" /><sodipodi:guide
       position="128,64"
       orientation="1,0"
       id="guide887"
       inkscape:locked="false"
       inkscape:label=""
       inkscape:color="rgb(0,0,255)" /><sodipodi:guide
       position="64,0"
       orientation="0,1"
       id="guide897"
       inkscape:locked="false"
       inkscape:label=""
       inkscape:color="rgb(0,0,255)" /><sodipodi:guide
       position="64,24"
       orientation="0,1"
       id="guide899"
       inkscape:locked="false"
       inkscape:label=""
       inkscape:color="rgb(0,0,255)" /><sodipodi:guide
       position="256,256"
       orientation="-0.70710678,0.70710678"
       id="guide950"
       inkscape:locked="false"
       inkscape:label=""
       inkscape:color="rgb(0,0,255)" /><sodipodi:guide
       position="64,64"
       orientation="0.70710678,0.70710678"
       id="guide952"
       inkscape:locked="false"
       inkscape:label=""
       inkscape:color="rgb(0,0,255)" /></sodipodi:namedview><metadata
     id="metadata4"><rdf:RDF><cc:Work
         rdf:about=""><dc:format>image/svg+xml</dc:format><dc:type
           rdf:resource="http://purl.org/dc/dcmitype/StillImage" /><dc:creator><cc:Agent><dc:title>GNOME Design Team</dc:title></cc:Agent></dc:creator><dc:source /><cc:license
           rdf:resource="http://creativecommons.org/licenses/by-sa/4.0/" /><dc:title>Adwaita Icon Template</dc:title><dc:subject><rdf:Bag /></dc:subject><dc:date /><dc:rights><cc:Agent><dc:title /></cc:Agent></dc:rights><dc:publisher><cc:Agent><dc:title /></cc:Agent></dc:publisher><dc:identifier /><dc:relation /><dc:language /><dc:coverage /><dc:description /><dc:contributor><cc:Agent><dc:title /></cc:Agent></dc:contributor></cc:Work><cc:License
         rdf:about="http://creativecommons.org/licenses/by-sa/4.0/"><cc:permits
           rdf:resource="http://creativecommons.org/ns#Reproduction" /><cc:permits
           rdf:resource="http://creativecommons.org/ns#Distribution" /><cc:requires
           rdf:resource="http://creativecommons.org/ns#Notice" /><cc:requires
           rdf:resource="http://creativecommons.org/ns#Attribution" /><cc:permits
           rdf:resource="http://creativecommons.org/ns#DerivativeWorks" /><cc:requires
           rdf:resource="http://creativecommons.org/ns#ShareAlike" /></cc:License></rdf:RDF></metadata><g
     id="layer1"
     inkscape:label="App Icon"
     inkscape:groupmode="layer"
     style="display:inline"
     transform="translate(0,-172)"><g
       inkscape:groupmode="layer"
       id="layer2"
       inkscape:label="baseplate"
       style="display:inline"
       sodipodi:insensitive="true"><g
         style="display:inline;fill:#000000;enable-background:new"
         transform="matrix(7.9911709,0,0,8.0036407,-167.7909,-4846.0776)"
         id="g12027"
         inkscape:export-xdpi="12"
         inkscape:export-ydpi="12" /><rect
         style="display:inline;overflow:visible;visibility:visible;fill:#f0f0f0;fill-opacity:1;fill-rule:nonzero;stroke:none;stroke-width:0.5;marker:none;enable-background:accumulate"
         id="rect13805"
         width="128"
         height="128"
         x="9.2651362e-08"
         y="172"
         inkscape:label="512x512" /><g
         id="g883"
         style="fill:none;fill-opacity:0.25098039;stroke:#a579b3;stroke-opacity:1"
         transform="translate(-24,24)" /><g
         id="g900"
         style="fill:none;fill-opacity:0.25098039;stroke:#a579b3;stroke-opacity:1"
         transform="translate(-24,24)" /><rect
         inkscape:label="512x512"
         y="172"
         x="160"
         height="16"
         width="16"
         id="rect859"
         style="display:inline;overflow:visible;visibility:visible;fill:#f0f0f0;fill-opacity:1;fill-rule:nonzero;stroke:none;stroke-width:0.5;marker:none;enable-background:accumulate" /><text
         xml:space="preserve"
         style="font-style:normal;font-variant:normal;font-weight:bold;font-stretch:normal;font-size:4px;line-height:125%;font-family:Cantarell;-inkscape-font-specification:'Cantarell, Bold';text-align:start;writing-mode:lr-tb;text-anchor:start;display:inline;fill:#000000;fill-opacity:1;stroke:none;stroke-width:0.332649;enable-background:new"
         x="0"
         y="164"
         id="text863"
         inkscape:label="icon-name"><tspan
           style="font-size:4px;stroke-width:0.332649"
           sodipodi:role="line"
           id="tspan861"
           x="0"
           y="164">Hicolor</tspan></text><text
         inkscape:label="icon-name"
         id="text867"
         y="164"
         x="160"
         style="font-style:normal;font-variant:normal;font-weight:bold;font-stretch:normal;font-size:4px;line-height:125%;font-family:Cantarell;-inkscape-font-specification:'Cantarell, Bold';text-align:start;writing-mode:lr-tb;text-anchor:start;display:inline;fill:#000000;fill-opacity:1;stroke:none;stroke-width:0.332649;enable-background:new"
         xml:space="preserve"><tspan
           y="164"
           x="160"
           id="tspan865"
           sodipodi:role="line"
           style="font-size:4px;stroke-width:0.332649">Symbolic</tspan></text></g><g
       inkscape:groupmode="layer"
       id="layer9"
       inkscape:label="icons"
       style="display:inline"><g
         id="g52592"
         inkscape:label="test"><path
           id="path50784"
           style="opacity:1;fill:#000000;fill-opacity:1;stroke:#ffffff;stroke-width:1;stroke-linecap:round;stroke-linejoin:bevel;stroke-dasharray:none;stroke-dashoffset:0;stroke-opacity:1"
           d="m 192.51172,182.35156 c -0.83563,0 -1.13139,0.0346 -1.84375,0.2168 -2.33123,0.59619 -4.25214,2.33901 -5.0918,4.61914 -0.42699,1.15959 -0.5523,2.51687 -0.34375,3.74219 0.19578,1.15036 0.68483,2.28678 1.37891,3.20898 0.15833,0.21038 0.20082,0.24535 0.45508,0.37305 0.8055,0.40455 1.64691,0.66139 2.5332,0.77539 0.45072,0.058 1.36347,0.0579 1.83399,0 1.7464,-0.21505 3.33458,-1.00933 4.5664,-2.28711 1.16944,-1.21307 1.87065,-2.68009 2.0957,-4.38281 0.0505,-0.38185 0.0487,-1.43376 -0.002,-1.79688 -0.12982,-0.92952 -0.36291,-1.70145 -0.75781,-2.50195 -0.14101,-0.28584 -0.187,-0.34884 -0.33789,-0.46484 -0.75686,-0.58188 -1.71364,-1.04759 -2.64258,-1.28516 -0.71235,-0.18218 -1.00812,-0.2168 -1.84375,-0.2168 z m -3.22656,3.42383 c 0.11081,0.001 0.1612,0.024 0.30273,0.0977 0.43248,0.22499 0.76044,0.8382 0.87891,1.64844 0.061,0.41683 0.0228,1.19798 -0.0762,1.57617 -0.15894,0.60726 -0.46628,1.08432 -0.8125,1.25976 -0.21965,0.11131 -0.48128,0.12488 -0.70313,0.0371 -0.32278,-0.12769 -0.6288,-0.51988 -0.80273,-1.03125 -0.44116,-1.29707 -0.0961,-3.02138 0.69726,-3.48632 0.10972,-0.0643 0.19391,-0.0853 0.37891,-0.0957 0.0556,-0.003 0.0998,-0.006 0.13672,-0.006 z m 3.22656,0.0137 c 0.31099,0 0.4327,0.0546 0.67773,0.30274 0.65138,0.65974 0.83563,2.31636 0.38086,3.43555 -0.15889,0.39104 -0.4239,0.71425 -0.6914,0.84375 -0.1703,0.0824 -0.45029,0.10193 -0.625,0.0449 -0.32626,-0.10646 -0.61,-0.4273 -0.8125,-0.92383 -0.44518,-1.09163 -0.2533,-2.74621 0.39258,-3.40039 0.24503,-0.24818 0.36675,-0.30274 0.67773,-0.30274 z"
           clip-path="url(#clipPath51097)"
           transform="translate(22.95819,24.913077)" /><path
           id="path51105"
           style="opacity:1;fill:#000000;fill-opacity:1;stroke:#ffffff;stroke-width:1;stroke-linecap:round;stroke-linejoin:bevel;stroke-dasharray:none;stroke-dashoffset:0;stroke-opacity:1"
           d="m 192.51172,182.35156 c -0.83563,0 -1.13139,0.0346 -1.84375,0.2168 -2.33123,0.59619 -4.25214,2.33901 -5.0918,4.61914 -0.42699,1.15959 -0.5523,2.51687 -0.34375,3.74219 0.19578,1.15036 0.68483,2.28678 1.37891,3.20898 0.15833,0.21038 0.20082,0.24535 0.45508,0.37305 0.8055,0.40455 1.64691,0.66139 2.5332,0.77539 0.45072,0.058 1.36347,0.0579 1.83399,0 1.7464,-0.21505 3.33458,-1.00933 4.5664,-2.28711 1.16944,-1.21307 1.87065,-2.68009 2.0957,-4.38281 0.0505,-0.38185 0.0487,-1.43376 -0.002,-1.79688 -0.12982,-0.92952 -0.36291,-1.70145 -0.75781,-2.50195 -0.14101,-0.28584 -0.187,-0.34884 -0.33789,-0.46484 -0.75686,-0.58188 -1.71364,-1.04759 -2.64258,-1.28516 -0.71235,-0.18218 -1.00812,-0.2168 -1.84375,-0.2168 z m -3.22656,3.42383 c 0.11081,0.001 0.1612,0.024 0.30273,0.0977 0.43248,0.22499 0.76044,0.8382 0.87891,1.64844 0.061,0.41683 0.0228,1.19798 -0.0762,1.57617 -0.15894,0.60726 -0.46628,1.08432 -0.8125,1.25976 -0.21965,0.11131 -0.48128,0.12488 -0.70313,0.0371 -0.32278,-0.12769 -0.6288,-0.51988 -0.80273,-1.03125 -0.44116,-1.29707 -0.0961,-3.02138 0.69726,-3.48632 0.10972,-0.0643 0.19391,-0.0853 0.37891,-0.0957 0.0556,-0.003 0.0998,-0.006 0.13672,-0.006 z m 3.22656,0.0137 c 0.31099,0 0.4327,0.0546 0.67773,0.30274 0.65138,0.65974 0.83563,2.31636 0.38086,3.43555 -0.15889,0.39104 -0.4239,0.71425 -0.6914,0.84375 -0.1703,0.0824 -0.45029,0.10193 -0.625,0.0449 -0.32626,-0.10646 -0.61,-0.4273 -0.8125,-0.92383 -0.44518,-1.09163 -0.2533,-2.74621 0.39258,-3.40039 0.24503,-0.24818 0.36675,-0.30274 0.67773,-0.30274 z"
           clip-path="url(#clipPath51097)"
           transform="translate(28.387882,49.686808)" /><g
           id="g51117"
           transform="matrix(0.27373832,0,0,0.27373832,203.43894,174.61195)"
           style="fill:none;fill-opacity:1;stroke:#000000;stroke-opacity:1"
           inkscape:label="symbolic"><path
             id="path51107"
             d="m -38.05917,3.70776 a 7.6343387,7.6343387 0 0 1 1.07177,3.88349 7.6343387,7.6343387 0 0 1 -7.63416,7.63415 7.6343387,7.6343387 0 0 1 -3.90002,-1.08107 7.4414038,7.4414038 0 0 0 5.83375,2.82205 7.4414038,7.4414038 0 0 0 7.44141,-7.4414 7.4414038,7.4414038 0 0 0 -2.81275,-5.81722 z"
             style="display:inline;vector-effect:none;fill:#000000;fill-opacity:1;stroke:#000000;stroke-width:0.47625;stroke-linecap:square;stroke-linejoin:miter;stroke-miterlimit:4;stroke-dasharray:none;stroke-dashoffset:0;stroke-opacity:1;paint-order:normal;enable-background:new"
             inkscape:connector-curvature="0"
             transform="matrix(3.7795276,0,0,3.7795276,225.33982,200.00008)" /><circle
             style="display:inline;vector-effect:none;fill:none;fill-opacity:1;stroke:#000000;stroke-width:0.582083;stroke-linecap:square;stroke-linejoin:miter;stroke-miterlimit:4;stroke-dasharray:none;stroke-dashoffset:0;stroke-opacity:1;paint-order:normal;enable-background:new"
             id="circle51109"
             cx="-42.687832"
             cy="-9.5249767"
             r="7.4414039"
             transform="matrix(3.7795276,0,0,-3.7795276,225.33982,200.00008)" /><g
             id="g51115"
             transform="translate(0,3.1420373)"
             style="fill:#000000;fill-opacity:1;stroke:#000000;stroke-opacity:1"
             inkscape:label="eyes"><ellipse
               cx="51.873249"
               cy="227.01349"
               rx="3.9542203"
               ry="7.7235284"
               style="display:inline;vector-effect:none;fill:#000000;fill-opacity:1;stroke:#000000;stroke-width:1.6;stroke-linecap:square;stroke-linejoin:miter;stroke-miterlimit:4;stroke-dasharray:none;stroke-dashoffset:0;stroke-opacity:1;paint-order:normal;enable-background:new"
               id="ellipse51111" /><ellipse
               cx="63.999996"
               cy="227.01349"
               rx="3.9542203"
               ry="7.7235284"
               style="display:inline;vector-effect:none;fill:#000000;fill-opacity:1;stroke:#000000;stroke-width:1.6;stroke-linecap:square;stroke-linejoin:miter;stroke-miterlimit:4;stroke-dasharray:none;stroke-dashoffset:0;stroke-opacity:1;paint-order:normal;enable-background:new"
               id="ellipse51113" /></g></g></g><g
         id="g52636"
         inkscape:label="hicolor"><path
           d="m 12.495266,268.68619 v 11.58448 c 0,4.10284 3.30302,7.40586 7.40586,7.40586 h 88.197764 c 4.10284,0 7.40585,-3.30302 7.40585,-7.40586 l 5e-5,-11.33762"
           style="fill:url(#linearGradient44749);fill-opacity:1;stroke:url(#linearGradient45392);stroke-width:1;stroke-linecap:round;stroke-linejoin:bevel;stroke-dasharray:none;stroke-dashoffset:0;stroke-opacity:1"
           id="path20613"
           sodipodi:nodetypes="cssc"
           inkscape:label="page side" /><path
           id="path14636"
           style="opacity:1;fill:#99c1f1;fill-opacity:1;stroke:#62a0ea;stroke-width:1;stroke-linecap:round;stroke-linejoin:bevel;stroke-dasharray:none;stroke-dashoffset:0;stroke-opacity:1"
           d="m 40,184.49524 h 68.09888 c 4.10284,0 7.40585,3.30302 7.40585,7.40586 v 84.18297 c 0,4.10284 -3.30301,7.40586 -7.40585,7.40586 H 19.901123 c -4.102841,0 -7.405909,-3.30302 -7.405857,-7.40586 V 212 Z"
           sodipodi:nodetypes="csssssscc"
           inkscape:label="page" /><g
           id="g44571"
           transform="translate(-128,-24)"
           style="stroke:#62a0ea;stroke-linecap:round;stroke-opacity:1"
           inkscape:label="grid2"><path
             style="fill:none;stroke:#62a0ea;stroke-width:1px;stroke-linecap:round;stroke-linejoin:miter;stroke-opacity:1"
             d="M 160,228.05448 232,228"
             id="path44523" /><path
             style="fill:none;stroke:#62a0ea;stroke-width:1px;stroke-linecap:round;stroke-linejoin:miter;stroke-opacity:1"
             d="m 160,236 h 72"
             id="path44525" /><path
             style="fill:none;stroke:#62a0ea;stroke-width:1px;stroke-linecap:round;stroke-linejoin:miter;stroke-opacity:1"
             d="m 160,244 72,-0.0545"
             id="path44527" /><path
             style="fill:none;stroke:#62a0ea;stroke-width:1px;stroke-linecap:round;stroke-linejoin:miter;stroke-opacity:1"
             d="m 160,251.94552 h 72"
             id="path44529" /><path
             style="fill:none;stroke:#62a0ea;stroke-width:1px;stroke-linecap:round;stroke-linejoin:miter;stroke-opacity:1"
             d="m 160,260 72,-0.0545"
             id="path44531" /><path
             style="fill:none;stroke:#62a0ea;stroke-width:1px;stroke-linecap:round;stroke-linejoin:miter;stroke-opacity:1"
             d="m 160,267.94552 h 72"
             id="path44533" /><path
             style="fill:none;stroke:#62a0ea;stroke-width:1px;stroke-linecap:round;stroke-linejoin:miter;stroke-opacity:1"
             d="m 160,276 72,-0.0545"
             id="path44535" /><path
             style="fill:none;stroke:#62a0ea;stroke-width:1px;stroke-linecap:round;stroke-linejoin:miter;stroke-opacity:1"
             d="m 160,283.94552 h 72"
             id="path44537" /><path
             style="fill:none;stroke:#62a0ea;stroke-width:1px;stroke-linecap:round;stroke-linejoin:miter;stroke-opacity:1"
             d="m 223.91828,219.97276 0.0545,72"
             id="path44539" /><path
             style="fill:none;stroke:#62a0ea;stroke-width:1px;stroke-linecap:round;stroke-linejoin:miter;stroke-opacity:1"
             d="m 215.97276,219.97276 v 72"
             id="path44541" /><path
             style="fill:none;stroke:#62a0ea;stroke-width:1px;stroke-linecap:round;stroke-linejoin:miter;stroke-opacity:1"
             d="m 207.97276,219.97276 0.0545,72"
             id="path44543" /><path
             style="fill:none;stroke:#62a0ea;stroke-width:1px;stroke-linecap:round;stroke-linejoin:miter;stroke-opacity:1"
             d="m 200.02724,219.97276 v 72"
             id="path44545" /><path
             style="fill:none;stroke:#62a0ea;stroke-width:1px;stroke-linecap:round;stroke-linejoin:miter;stroke-opacity:1"
             d="m 191.97276,219.97276 0.0545,72"
             id="path44547" /><path
             style="fill:none;stroke:#62a0ea;stroke-width:1px;stroke-linecap:round;stroke-linejoin:miter;stroke-opacity:1"
             d="m 184.02724,219.97276 v 72"
             id="path44549" /><path
             style="fill:none;stroke:#62a0ea;stroke-width:1px;stroke-linecap:round;stroke-linejoin:miter;stroke-opacity:1"
             d="m 175.97276,219.97276 0.0545,72"
             id="path44551" /><path
             style="fill:none;stroke:#62a0ea;stroke-width:1px;stroke-linecap:round;stroke-linejoin:miter;stroke-opacity:1"
             d="m 168.02724,219.97276 v 72"
             id="path44553" /></g><g
           id="g44684"
           transform="translate(-136.02724,-15.97276)"
           style="stroke:#62a0ea;stroke-linecap:round;stroke-opacity:1"
           inkscape:label="grid1"><path
             style="fill:none;stroke:#62a0ea;stroke-width:1px;stroke-linecap:round;stroke-linejoin:miter;stroke-opacity:1"
             d="M 160,228.05448 232,228"
             id="path44652" /><path
             style="fill:none;stroke:#62a0ea;stroke-width:1px;stroke-linecap:round;stroke-linejoin:miter;stroke-opacity:1"
             d="m 160,236 h 72"
             id="path44654" /><path
             style="fill:none;stroke:#62a0ea;stroke-width:1px;stroke-linecap:round;stroke-linejoin:miter;stroke-opacity:1"
             d="m 160,244 72,-0.0545"
             id="path44656" /><path
             style="fill:none;stroke:#62a0ea;stroke-width:1px;stroke-linecap:round;stroke-linejoin:miter;stroke-opacity:1"
             d="m 160,251.94552 h 72"
             id="path44658" /><path
             style="fill:none;stroke:#62a0ea;stroke-width:1px;stroke-linecap:round;stroke-linejoin:miter;stroke-opacity:1"
             d="m 160,260 72,-0.0545"
             id="path44660" /><path
             style="fill:none;stroke:#62a0ea;stroke-width:1px;stroke-linecap:round;stroke-linejoin:miter;stroke-opacity:1"
             d="m 160,267.94552 h 72"
             id="path44662" /><path
             style="fill:none;stroke:#62a0ea;stroke-width:1px;stroke-linecap:round;stroke-linejoin:miter;stroke-opacity:1"
             d="m 160,276 72,-0.0545"
             id="path44664" /><path
             style="fill:none;stroke:#62a0ea;stroke-width:1px;stroke-linecap:round;stroke-linejoin:miter;stroke-opacity:1"
             d="m 160,283.94552 h 72"
             id="path44666" /><path
             style="fill:none;stroke:#62a0ea;stroke-width:1px;stroke-linecap:round;stroke-linejoin:miter;stroke-opacity:1"
             d="m 223.91828,219.97276 0.0545,72"
             id="path44668" /><path
             style="fill:none;stroke:#62a0ea;stroke-width:1px;stroke-linecap:round;stroke-linejoin:miter;stroke-opacity:1"
             d="m 215.97276,219.97276 v 72"
             id="path44670" /><path
             style="fill:none;stroke:#62a0ea;stroke-width:1px;stroke-linecap:round;stroke-linejoin:miter;stroke-opacity:1"
             d="m 207.97276,219.97276 0.0545,72"
             id="path44672" /><path
             style="fill:none;stroke:#62a0ea;stroke-width:1px;stroke-linecap:round;stroke-linejoin:miter;stroke-opacity:1"
             d="m 200.02724,219.97276 v 72"
             id="path44674" /><path
             style="fill:none;stroke:#62a0ea;stroke-width:1px;stroke-linecap:round;stroke-linejoin:miter;stroke-opacity:1"
             d="m 191.97276,219.97276 0.0545,72"
             id="path44676" /><path
             style="fill:none;stroke:#62a0ea;stroke-width:1px;stroke-linecap:round;stroke-linejoin:miter;stroke-opacity:1"
             d="m 184.02724,219.97276 v 72"
             id="path44678" /><path
             style="fill:none;stroke:#62a0ea;stroke-width:1px;stroke-linecap:round;stroke-linejoin:miter;stroke-opacity:1"
             d="m 175.97276,219.97276 0.0545,72"
             id="path44680" /><path
             style="fill:none;stroke:#62a0ea;stroke-width:1px;stroke-linecap:round;stroke-linejoin:miter;stroke-opacity:1"
             d="m 168.02724,219.97276 v 72"
             id="path44682" /></g><g
           id="g49135"
           inkscape:label="tee"><path
             id="circle1080-3"
             d="m -38.05917,3.70776 a 7.6343387,7.6343387 0 0 1 1.07177,3.88349 7.6343387,7.6343387 0 0 1 -7.63416,7.63415 7.6343387,7.6343387 0 0 1 -3.90002,-1.08107 7.4414038,7.4414038 0 0 0 5.83375,2.82205 7.4414038,7.4414038 0 0 0 7.44141,-7.4414 7.4414038,7.4414038 0 0 0 -2.81275,-5.81722 z"
             style="display:inline;enable-background:new;vector-effect:none;fill:#1c71d8;fill-opacity:1;stroke:none;stroke-width:0.47625;stroke-linecap:square;stroke-linejoin:miter;stroke-miterlimit:4;stroke-dasharray:none;stroke-dashoffset:0;stroke-opacity:1;paint-order:normal"
             inkscape:connector-curvature="0"
             transform="matrix(3.7795276,0,0,3.7795276,225.33982,200.00008)"
             inkscape:label="shadow" /><circle
             style="display:inline;enable-background:new;vector-effect:none;fill:none;fill-opacity:1;stroke:#1c71d8;stroke-width:0.582083;stroke-linecap:square;stroke-linejoin:miter;stroke-miterlimit:4;stroke-dasharray:none;stroke-dashoffset:0;stroke-opacity:1;paint-order:normal"
             id="circle2621-5"
             cx="-42.687832"
             cy="-9.5249767"
             r="7.4414039"
             transform="matrix(3.7795276,0,0,-3.7795276,225.33982,200.00008)"
             inkscape:label="outline" /><g
             id="g41415"
             transform="translate(0,3.1420373)"
             inkscape:label="eyes"><ellipse
               cx="51.873249"
               cy="227.01349"
               rx="3.9542203"
               ry="7.7235284"
               style="display:inline;vector-effect:none;fill:#1c71d8;fill-opacity:1;stroke:none;stroke-width:1.6;stroke-linecap:square;stroke-linejoin:miter;stroke-miterlimit:4;stroke-dasharray:none;stroke-dashoffset:0;stroke-opacity:0.294118;paint-order:normal;enable-background:new"
               id="ellipse946-6" /><ellipse
               cx="63.999996"
               cy="227.01349"
               rx="3.9542203"
               ry="7.7235284"
               style="display:inline;vector-effect:none;fill:#1c71d8;fill-opacity:1;stroke:none;stroke-width:1.6;stroke-linecap:square;stroke-linejoin:miter;stroke-miterlimit:4;stroke-dasharray:none;stroke-dashoffset:0;stroke-opacity:0.294118;paint-order:normal;enable-background:new"
               id="ellipse40685" /></g></g></g><g
         id="g49147"
         transform="matrix(0.27373832,0,0,0.27373832,150.48075,115.39776)"
         style="fill:none;fill-opacity:1;stroke:#000000;stroke-opacity:1"
         inkscape:label="symbolic"><path
           id="path49137"
           d="m -38.05917,3.70776 a 7.6343387,7.6343387 0 0 1 1.07177,3.88349 7.6343387,7.6343387 0 0 1 -7.63416,7.63415 7.6343387,7.6343387 0 0 1 -3.90002,-1.08107 7.4414038,7.4414038 0 0 0 5.83375,2.82205 7.4414038,7.4414038 0 0 0 7.44141,-7.4414 7.4414038,7.4414038 0 0 0 -2.81275,-5.81722 z"
           style="display:inline;vector-effect:none;fill:#000000;fill-opacity:1;stroke:#000000;stroke-width:0.47625;stroke-linecap:square;stroke-linejoin:miter;stroke-miterlimit:4;stroke-dasharray:none;stroke-dashoffset:0;stroke-opacity:1;paint-order:normal;enable-background:new"
           inkscape:connector-curvature="0"
           transform="matrix(3.7795276,0,0,3.7795276,225.33982,200.00008)"
           inkscape:label="shadow" /><circle
           style="display:inline;vector-effect:none;fill:none;fill-opacity:1;stroke:#000000;stroke-width:0.582083;stroke-linecap:square;stroke-linejoin:miter;stroke-miterlimit:4;stroke-dasharray:none;stroke-dashoffset:0;stroke-opacity:1;paint-order:normal;enable-background:new"
           id="circle49139"
           cx="-42.687832"
           cy="-9.5249767"
           r="7.4414039"
           transform="matrix(3.7795276,0,0,-3.7795276,225.33982,200.00008)"
           inkscape:label="outline" /><g
           id="g49145"
           transform="translate(0,3.1420373)"
           style="fill:#000000;fill-opacity:1;stroke:#000000;stroke-opacity:1"
           inkscape:label="eyes"><ellipse
             cx="51.873249"
             cy="227.01349"
             rx="3.9542203"
             ry="7.7235284"
             style="display:inline;vector-effect:none;fill:#000000;fill-opacity:1;stroke:#000000;stroke-width:1.6;stroke-linecap:square;stroke-linejoin:miter;stroke-miterlimit:4;stroke-dasharray:none;stroke-dashoffset:0;stroke-opacity:1;paint-order:normal;enable-background:new"
             id="ellipse49141" /><ellipse
             cx="63.999996"
             cy="227.01349"
             rx="3.9542203"
             ry="7.7235284"
             style="display:inline;vector-effect:none;fill:#000000;fill-opacity:1;stroke:#000000;stroke-width:1.6;stroke-linecap:square;stroke-linejoin:miter;stroke-miterlimit:4;stroke-dasharray:none;stroke-dashoffset:0;stroke-opacity:1;paint-order:normal;enable-background:new"
             id="ellipse49143" /></g></g></g><g
       inkscape:groupmode="layer"
       id="layer3"
       inkscape:label="hairlines"
       style="display:none"
       sodipodi:insensitive="true"><circle
         cx="64.000031"
         cy="236"
         r="59.504131"
         id="circle2892"
         style="display:inline;opacity:0.1;vector-effect:none;fill:none;fill-opacity:1;stroke:#000000;stroke-width:0.99;stroke-linecap:butt;stroke-linejoin:miter;stroke-miterlimit:4;stroke-dasharray:0.99, 0.99;stroke-dashoffset:0;stroke-opacity:1;marker:none;marker-start:none;marker-mid:none;marker-end:none;paint-order:normal;enable-background:new" /><rect
         ry="7.9292889"
         rx="8.701004"
         y="180.49496"
         x="20.495007"
         height="111.01005"
         width="87.009987"
         id="rect2894"
         style="display:inline;opacity:0.1;vector-effect:none;fill:none;fill-opacity:1;stroke:#000000;stroke-width:0.99;stroke-linecap:butt;stroke-linejoin:miter;stroke-miterlimit:4;stroke-dasharray:0.99, 0.99;stroke-dashoffset:0;stroke-opacity:1;marker:none;marker-start:none;marker-mid:none;marker-end:none;paint-order:normal;enable-background:new" /><rect
         ry="7.9238095"
         rx="7.9238095"
         y="184.49524"
         x="12.495266"
         height="103.00952"
         width="103.00952"
         id="rect2896"
         style="display:inline;opacity:0.1;vector-effect:none;fill:none;fill-opacity:1;stroke:#000000;stroke-width:0.99;stroke-linecap:butt;stroke-linejoin:miter;stroke-miterlimit:4;stroke-dasharray:0.99, 0.99;stroke-dashoffset:0;stroke-opacity:1;marker:none;marker-start:none;marker-mid:none;marker-end:none;paint-order:normal;enable-background:new" /><rect
         ry="8.701005"
         rx="7.9292889"
         y="200.49496"
         x="8.4950066"
         height="87.010048"
         width="111.01004"
         id="rect2898"
         style="display:inline;opacity:0.1;vector-effect:none;fill:none;fill-opacity:1;stroke:#000000;stroke-width:0.99;stroke-linecap:butt;stroke-linejoin:miter;stroke-miterlimit:4;stroke-dasharray:0.99, 0.99;stroke-dashoffset:0;stroke-opacity:1;marker:none;marker-start:none;marker-mid:none;marker-end:none;paint-order:normal;enable-background:new" /><path
         inkscape:connector-curvature="0"
         id="path2900"
         d="M 2.6203015e-5,288.99999 H 128.00003"
         style="display:inline;fill:none;stroke:#62a0ea;stroke-width:2;stroke-linecap:butt;stroke-linejoin:miter;stroke-miterlimit:4;stroke-dasharray:none;stroke-opacity:1;enable-background:new" /></g></g></svg>
