<?xml version="1.0" encoding="UTF-8" standalone="no"?>
<!-- Created with Inkscape (http://www.inkscape.org/) -->

<svg
   version="1.1"
   id="svg1"
   width="512"
   height="512"
   viewBox="0 0 512 512"
   sodipodi:docname="rpp_symbolic.svg"
   inkscape:version="1.3 (0e150ed6c4, 2023-07-21)"
   xmlns:inkscape="http://www.inkscape.org/namespaces/inkscape"
   xmlns:sodipodi="http://sodipodi.sourceforge.net/DTD/sodipodi-0.dtd"
   xmlns="http://www.w3.org/2000/svg"
   xmlns:svg="http://www.w3.org/2000/svg">
  <defs
     id="defs1" />
  <sodipodi:namedview
     id="namedview1"
     pagecolor="#ffffff"
     bordercolor="#666666"
     borderopacity="1.0"
     inkscape:showpageshadow="2"
     inkscape:pageopacity="0.0"
     inkscape:pagecheckerboard="0"
     inkscape:deskcolor="#d1d1d1"
     showgrid="true"
     inkscape:zoom="0.7080078"
     inkscape:cx="277.53931"
     inkscape:cy="225.28"
     inkscape:window-width="1920"
     inkscape:window-height="1011"
     inkscape:window-x="0"
     inkscape:window-y="32"
     inkscape:window-maximized="1"
     inkscape:current-layer="path2">
    <inkscape:grid
       id="grid1"
       units="px"
       originx="0"
       originy="0"
       spacingx="1"
       spacingy="1"
       empcolor="#0099e5"
       empopacity="0.30196078"
       color="#0099e5"
       opacity="0.14901961"
       empspacing="5"
       dotted="false"
       gridanglex="30"
       gridanglez="30"
       visible="true" />
  </sodipodi:namedview>
  <g
     inkscape:groupmode="layer"
     inkscape:label="Image"
     id="g1">
    <g
       id="path2"
       style="stroke:none">
      <path
         id="path4"
         style="color:#000000;fill:#000000;stroke:none;stroke-linecap:round;-inkscape-stroke:none"
         d="m 28,30 c 0,151.32422 0,302.64844 0,453.97266 156.50977,0.36002 313.01953,0.72226 469.5293,1.08398 -35.33007,-45.57372 -70.65875,-91.14852 -105.98828,-136.72266 20.62168,-10.63723 39.5118,-24.87111 54.64117,-42.52395 14.87757,-17.27549 25.98786,-37.77541 32.29264,-59.68732 8.31148,-28.63738 8.51959,-59.44815 1.32369,-88.34212 C 471.47169,124.17982 453.60228,92.834809 428.2168,69.208984 411.51093,53.641957 391.43915,41.591412 369.61278,34.772322 354.56918,30.032424 338.76372,27.817416 323,28 c -98.33333,0 -196.66667,0 -295,0 0,0.666667 0,1.333333 0,2 z m 296.98828,22 c 3.06014,0.0039 6.19087,0.110699 9.1564,0.32616 15.58783,1.084052 31.13847,5.207372 45.26616,12.065822 3.26021,1.573134 6.43219,3.281542 9.5042,5.099137 4.24692,2.507819 8.4438,5.342934 12.31934,8.26474 7.36221,5.559417 14.1408,11.877834 20.27929,18.761719 0.34782,0.393286 0.92142,1.054613 1.35578,1.550638 1.4479,1.656924 2.96493,3.518234 4.25555,5.138814 12.83509,16.2604 22.30833,35.11521 27.9707,55.0293 0.17329,0.64984 0.44009,1.6078 0.64927,2.37588 3.99931,15.00793 5.90009,30.59724 5.3605,46.12802 -0.0803,2.19182 -0.21289,4.60359 -0.40042,6.79553 -0.96368,11.81104 -3.43519,23.62589 -7.45472,34.84707 -0.83151,2.32741 -1.73017,4.63688 -2.64802,6.80679 -7.24384,17.26472 -18.3464,32.82893 -32.00835,45.60221 -7.42255,6.96477 -15.57037,13.14075 -24.18966,18.54801 -2.29864,1.44084 -4.81957,2.94707 -7.28996,4.33438 -5.19434,2.92706 -10.6814,5.6754 -16.18995,8.1308 -5.61797,2.471 -11.27237,4.85871 -16.90486,7.29654 31.48601,40.61217 62.96707,81.22816 94.45117,121.8418 C 316.3138,460.63802 184.1569,460.33268 52,460.02734 52,324.01823 52,188.00911 52,52 c 90.99609,0 181.99219,0 272.98828,0 z" />
      <path
         style="fill:#000000;fill-opacity:1;stroke-width:32.4758;stroke-linecap:round"
         d="M 146.81057,400.88385 V 372.46756 H 117.58238 88.354187 V 352.9821 333.49664 h 29.228193 29.22819 v -28.4163 -28.4163 h 18.67357 18.67357 v 28.4163 28.4163 h 29.22819 29.2282 v 19.48546 19.48546 h -29.2282 -29.22819 v 28.41629 28.4163 h -18.67357 -18.67357 z"
         id="path5" />
      <path
         style="fill:#000000;fill-opacity:1;stroke-width:32.4758;stroke-linecap:round"
         d="m 146.81057,204.80105 v -28.4163 H 117.58238 88.354187 v -19.48546 -19.48547 h 29.228193 29.22819 v -28.4163 -28.41629 h 18.67357 18.67357 v 28.4163 28.41629 h 29.22819 29.2282 v 19.48547 19.48546 h -29.2282 -29.22819 v 28.4163 28.4163 h -18.67357 -18.67357 z"
         id="path6" />
    </g>
  </g>
</svg>
