<?xml version="1.0" encoding="UTF-8" standalone="no"?>
<svg
   version="1.1"
   viewBox="0 0 512 512.00001"
   id="svg2"
   xml:space="preserve"
   inkscape:version="1.3 (0e150ed6c4, 2023-07-21)"
   sodipodi:docname="ddnet.svg"
   width="512"
   height="512"
   xmlns:inkscape="http://www.inkscape.org/namespaces/inkscape"
   xmlns:sodipodi="http://sodipodi.sourceforge.net/DTD/sodipodi-0.dtd"
   xmlns="http://www.w3.org/2000/svg"
   xmlns:svg="http://www.w3.org/2000/svg"
   xmlns:rdf="http://www.w3.org/1999/02/22-rdf-syntax-ns#"
   xmlns:cc="http://creativecommons.org/ns#"
   xmlns:dc="http://purl.org/dc/elements/1.1/"><sodipodi:namedview
     pagecolor="#ffffff"
     bordercolor="#666666"
     borderopacity="1"
     objecttolerance="10"
     gridtolerance="10"
     guidetolerance="10"
     inkscape:pageopacity="0"
     inkscape:pageshadow="2"
     inkscape:window-width="1920"
     inkscape:window-height="1011"
     id="namedview4865"
     showgrid="false"
     fit-margin-top="20"
     fit-margin-left="20"
     fit-margin-bottom="20"
     fit-margin-right="20"
     inkscape:zoom="0.95708007"
     inkscape:cx="276.36141"
     inkscape:cy="85.154839"
     inkscape:window-x="1280"
     inkscape:window-y="32"
     inkscape:window-maximized="1"
     inkscape:current-layer="g1"
     inkscape:document-rotation="0"
     inkscape:showpageshadow="2"
     inkscape:pagecheckerboard="0"
     inkscape:deskcolor="#d1d1d1" /><metadata
     id="metadata8"><rdf:RDF><cc:Work
         rdf:about=""><dc:format>image/svg+xml</dc:format><dc:type
           rdf:resource="http://purl.org/dc/dcmitype/StillImage" /></cc:Work></rdf:RDF></metadata><defs
     id="defs6"><clipPath
       id="clipPath100"><path
         d="M 0,0 H 1440 V 320 H 0 Z"
         id="path102"
         inkscape:connector-curvature="0" /></clipPath><mask
       id="mask104"><g
         id="g106"><g
           clip-path="url(#clipPath100)"
           id="g108"><path
             d="M 0,0 H 1440 V 320 H 0 Z"
             id="path110"
             style="fill:#000000;fill-opacity:0.2;fill-rule:nonzero;stroke:none"
             inkscape:connector-curvature="0" /></g></g></mask><clipPath
       id="clipPath116"><path
         d="M 0,0 H 1440 V 320 H 0 Z"
         id="path118"
         inkscape:connector-curvature="0" /></clipPath><clipPath
       id="clipPath120"><path
         d="M 0,0 H 1440 V 320 H 0 Z"
         id="path122"
         inkscape:connector-curvature="0" /></clipPath><pattern
       id="pattern124"
       height="320"
       width="1440"
       y="0"
       x="0"
       patternUnits="userSpaceOnUse"><g
         id="g126" /><g
         id="g128"><g
           id="g130"
           clip-path="url(#clipPath120)"><g
             id="g132"><path
               id="path134"
               style="fill:#000000;fill-opacity:1;fill-rule:nonzero;stroke:none"
               d="m 323.945,218.777 c 6.078,-8.867 -1.269,-10.64 -12.543,-10.515 -11.277,0.129 -14.886,-0.379 -16.218,1.84 -1.329,2.214 0.699,-4.309 2.789,-4.625 2.089,-0.317 21.535,-0.508 26.289,1.394 4.75,1.899 5.004,3.418 3.609,6.965 -1.394,3.551 -4.117,5.004 -3.926,4.941 z" /></g></g></g></pattern><clipPath
       id="clipPath170"><path
         d="M 0,0 H 1440 V 320 H 0 Z"
         id="path172"
         inkscape:connector-curvature="0" /></clipPath><mask
       id="mask174"><g
         id="g176"><g
           clip-path="url(#clipPath170)"
           id="g178"><path
             d="M 0,0 H 1440 V 320 H 0 Z"
             id="path180"
             style="fill:#000000;fill-opacity:0.2;fill-rule:nonzero;stroke:none"
             inkscape:connector-curvature="0" /></g></g></mask><clipPath
       id="clipPath186"><path
         d="M 0,0 H 1440 V 320 H 0 Z"
         id="path188"
         inkscape:connector-curvature="0" /></clipPath><clipPath
       id="clipPath190"><path
         d="M 0,0 H 1440 V 320 H 0 Z"
         id="path192"
         inkscape:connector-curvature="0" /></clipPath><pattern
       id="pattern194"
       height="320"
       width="1440"
       y="0"
       x="0"
       patternUnits="userSpaceOnUse"><g
         id="g196" /><g
         id="g198"><g
           id="g200"
           clip-path="url(#clipPath190)"><g
             id="g202"><path
               id="path204"
               style="fill:#000000;fill-opacity:1;fill-rule:nonzero;stroke:none"
               d="m 350.438,218.777 c 6.082,-8.867 -1.266,-10.64 -12.543,-10.515 -11.278,0.129 -14.887,-0.379 -16.215,1.84 -1.332,2.214 0.695,-4.309 2.785,-4.625 2.09,-0.317 21.539,-0.508 26.289,1.394 4.75,1.899 5.004,3.418 3.609,6.965 -1.39,3.551 -4.117,5.004 -3.925,4.941 z" /></g></g></g></pattern><clipPath
       id="clipPath226"><path
         d="M 0,0 H 1440 V 320 H 0 Z"
         id="path228"
         inkscape:connector-curvature="0" /></clipPath><mask
       id="mask230"><g
         id="g232"><g
           clip-path="url(#clipPath226)"
           id="g234"><path
             d="M 0,0 H 1440 V 320 H 0 Z"
             id="path236"
             style="fill:#000000;fill-opacity:0.2;fill-rule:nonzero;stroke:none"
             inkscape:connector-curvature="0" /></g></g></mask><clipPath
       id="clipPath242"><path
         d="M 0,0 H 1440 V 320 H 0 Z"
         id="path244"
         inkscape:connector-curvature="0" /></clipPath><clipPath
       id="clipPath246"><path
         d="M 0,0 H 1440 V 320 H 0 Z"
         id="path248"
         inkscape:connector-curvature="0" /></clipPath><pattern
       id="pattern250"
       height="320"
       width="1440"
       y="0"
       x="0"
       patternUnits="userSpaceOnUse"><g
         id="g252" /><g
         id="g254"><g
           id="g256"
           clip-path="url(#clipPath246)"><g
             id="g258"><path
               id="path260"
               style="fill:#000000;fill-opacity:1;fill-rule:nonzero;stroke:none"
               d="m 81.828,141.145 c 7.988,-11.653 -1.664,-13.985 -16.48,-13.817 -14.817,0.164 -19.563,-0.5 -21.313,2.414 -1.746,2.914 0.918,-5.66 3.664,-6.078 2.746,-0.414 28.301,-0.664 34.543,1.832 6.242,2.496 6.578,4.496 4.746,9.156 -1.832,4.66 -5.41,6.575 -5.16,6.493 z" /></g></g></g></pattern><clipPath
       id="clipPath296"><path
         d="M 0,0 H 1440 V 320 H 0 Z"
         id="path298"
         inkscape:connector-curvature="0" /></clipPath><mask
       id="mask300"><g
         id="g302"><g
           clip-path="url(#clipPath296)"
           id="g304"><path
             d="M 0,0 H 1440 V 320 H 0 Z"
             id="path306"
             style="fill:#000000;fill-opacity:0.2;fill-rule:nonzero;stroke:none"
             inkscape:connector-curvature="0" /></g></g></mask><clipPath
       id="clipPath312"><path
         d="M 0,0 H 1440 V 320 H 0 Z"
         id="path314"
         inkscape:connector-curvature="0" /></clipPath><clipPath
       id="clipPath316"><path
         d="M 0,0 H 1440 V 320 H 0 Z"
         id="path318"
         inkscape:connector-curvature="0" /></clipPath><pattern
       id="pattern320"
       height="320"
       width="1440"
       y="0"
       x="0"
       patternUnits="userSpaceOnUse"><g
         id="g322" /><g
         id="g324"><g
           id="g326"
           clip-path="url(#clipPath316)"><g
             id="g328"><path
               id="path330"
               style="fill:#000000;fill-opacity:1;fill-rule:nonzero;stroke:none"
               d="m 116.641,141.145 c 7.992,-11.653 -1.664,-13.985 -16.481,-13.817 -14.816,0.164 -19.562,-0.5 -21.308,2.414 -1.75,2.914 0.914,-5.66 3.66,-6.078 2.746,-0.414 28.3,-0.664 34.547,1.832 6.242,2.496 6.574,4.496 4.742,9.156 -1.832,4.66 -5.41,6.575 -5.16,6.493 z" /></g></g></g></pattern><clipPath
       id="clipPath352"><path
         d="M 0,0 H 1440 V 320 H 0 Z"
         id="path354"
         inkscape:connector-curvature="0" /></clipPath><mask
       id="mask356"><g
         id="g358"><g
           clip-path="url(#clipPath352)"
           id="g360"><path
             d="M 0,0 H 1440 V 320 H 0 Z"
             id="path362"
             style="fill:#000000;fill-opacity:0.2;fill-rule:nonzero;stroke:none"
             inkscape:connector-curvature="0" /></g></g></mask><clipPath
       id="clipPath368"><path
         d="M 0,0 H 1440 V 320 H 0 Z"
         id="path370"
         inkscape:connector-curvature="0" /></clipPath><clipPath
       id="clipPath372"><path
         d="M 0,0 H 1440 V 320 H 0 Z"
         id="path374"
         inkscape:connector-curvature="0" /></clipPath><pattern
       id="pattern376"
       height="320"
       width="1440"
       y="0"
       x="0"
       patternUnits="userSpaceOnUse"><g
         id="g378" /><g
         id="g380"><g
           id="g382"
           clip-path="url(#clipPath372)"><g
             id="g384"><path
               id="path386"
               style="fill:#000000;fill-opacity:1;fill-rule:nonzero;stroke:none"
               d="m 134.754,269.227 c 5.066,-7.391 -1.055,-8.868 -10.449,-8.762 -9.395,0.105 -12.407,-0.317 -13.512,1.531 -1.109,1.844 0.578,-3.59 2.32,-3.855 1.742,-0.262 17.946,-0.422 21.903,1.164 3.961,1.582 4.172,2.847 3.011,5.804 -1.164,2.953 -3.433,4.168 -3.273,4.118 z" /></g></g></g></pattern><clipPath
       id="clipPath422"><path
         d="M 0,0 H 1440 V 320 H 0 Z"
         id="path424"
         inkscape:connector-curvature="0" /></clipPath><mask
       id="mask426"><g
         id="g428"><g
           clip-path="url(#clipPath422)"
           id="g430"><path
             d="M 0,0 H 1440 V 320 H 0 Z"
             id="path432"
             style="fill:#000000;fill-opacity:0.2;fill-rule:nonzero;stroke:none"
             inkscape:connector-curvature="0" /></g></g></mask><clipPath
       id="clipPath438"><path
         d="M 0,0 H 1440 V 320 H 0 Z"
         id="path440"
         inkscape:connector-curvature="0" /></clipPath><clipPath
       id="clipPath442"><path
         d="M 0,0 H 1440 V 320 H 0 Z"
         id="path444"
         inkscape:connector-curvature="0" /></clipPath><pattern
       id="pattern446"
       height="320"
       width="1440"
       y="0"
       x="0"
       patternUnits="userSpaceOnUse"><g
         id="g448" /><g
         id="g450"><g
           id="g452"
           clip-path="url(#clipPath442)"><g
             id="g454"><path
               id="path456"
               style="fill:#000000;fill-opacity:1;fill-rule:nonzero;stroke:none"
               d="m 156.828,269.227 c 5.067,-7.391 -1.055,-8.868 -10.449,-8.762 -9.399,0.105 -12.406,-0.317 -13.512,1.531 -1.109,1.844 0.578,-3.59 2.321,-3.855 1.742,-0.262 17.945,-0.422 21.902,1.164 3.961,1.582 4.172,2.847 3.008,5.804 -1.16,2.953 -3.43,4.168 -3.27,4.118 z" /></g></g></g></pattern><clipPath
       id="clipPath478"><path
         d="M 0,0 H 1440 V 320 H 0 Z"
         id="path480"
         inkscape:connector-curvature="0" /></clipPath><mask
       id="mask482"><g
         id="g484"><g
           clip-path="url(#clipPath478)"
           id="g486"><path
             d="M 0,0 H 1440 V 320 H 0 Z"
             id="path488"
             style="fill:#000000;fill-opacity:0.2;fill-rule:nonzero;stroke:none"
             inkscape:connector-curvature="0" /></g></g></mask><clipPath
       id="clipPath494"><path
         d="M 0,0 H 1440 V 320 H 0 Z"
         id="path496"
         inkscape:connector-curvature="0" /></clipPath><clipPath
       id="clipPath498"><path
         d="M 0,0 H 1440 V 320 H 0 Z"
         id="path500"
         inkscape:connector-curvature="0" /></clipPath><pattern
       id="pattern502"
       height="320"
       width="1440"
       y="0"
       x="0"
       patternUnits="userSpaceOnUse"><g
         id="g504" /><g
         id="g506"><g
           id="g508"
           clip-path="url(#clipPath498)"><g
             id="g510"><path
               id="path512"
               style="fill:#000000;fill-opacity:1;fill-rule:nonzero;stroke:none"
               d="m 225.184,53.727 c 10.726,-15.641 -2.235,-18.77 -22.122,-18.547 -19.886,0.222 -26.257,-0.672 -28.601,3.238 -2.348,3.91 1.227,-7.598 4.914,-8.156 3.687,-0.559 37.988,-0.891 46.367,2.461 8.379,3.351 8.828,6.031 6.371,12.289 -2.461,6.258 -7.265,8.828 -6.929,8.715 z" /></g></g></g></pattern><clipPath
       id="clipPath548"><path
         d="M 0,0 H 1440 V 320 H 0 Z"
         id="path550"
         inkscape:connector-curvature="0" /></clipPath><mask
       id="mask552"><g
         id="g554"><g
           clip-path="url(#clipPath548)"
           id="g556"><path
             d="M 0,0 H 1440 V 320 H 0 Z"
             id="path558"
             style="fill:#000000;fill-opacity:0.2;fill-rule:nonzero;stroke:none"
             inkscape:connector-curvature="0" /></g></g></mask><clipPath
       id="clipPath564"><path
         d="M 0,0 H 1440 V 320 H 0 Z"
         id="path566"
         inkscape:connector-curvature="0" /></clipPath><clipPath
       id="clipPath568"><path
         d="M 0,0 H 1440 V 320 H 0 Z"
         id="path570"
         inkscape:connector-curvature="0" /></clipPath><pattern
       id="pattern572"
       height="320"
       width="1440"
       y="0"
       x="0"
       patternUnits="userSpaceOnUse"><g
         id="g574" /><g
         id="g576"><g
           id="g578"
           clip-path="url(#clipPath568)"><g
             id="g580"><path
               id="path582"
               style="fill:#000000;fill-opacity:1;fill-rule:nonzero;stroke:none"
               d="m 271.914,53.727 c 10.727,-15.641 -2.234,-18.77 -22.121,-18.547 -19.891,0.222 -26.258,-0.672 -28.605,3.238 -2.344,3.91 1.23,-7.598 4.917,-8.156 3.688,-0.559 37.989,-0.891 46.368,2.461 8.379,3.351 8.824,6.031 6.367,12.289 -2.457,6.258 -7.262,8.828 -6.926,8.715 z" /></g></g></g></pattern><clipPath
       id="clipPath604"><path
         d="M 0,0 H 1440 V 320 H 0 Z"
         id="path606"
         inkscape:connector-curvature="0" /></clipPath><mask
       id="mask608"><g
         id="g610"><g
           clip-path="url(#clipPath604)"
           id="g612"><path
             d="M 0,0 H 1440 V 320 H 0 Z"
             id="path614"
             style="fill:#000000;fill-opacity:0.2;fill-rule:nonzero;stroke:none"
             inkscape:connector-curvature="0" /></g></g></mask><clipPath
       id="clipPath620"><path
         d="M 0,0 H 1440 V 320 H 0 Z"
         id="path622"
         inkscape:connector-curvature="0" /></clipPath><clipPath
       id="clipPath624"><path
         d="M 0,0 H 1440 V 320 H 0 Z"
         id="path626"
         inkscape:connector-curvature="0" /></clipPath><pattern
       id="pattern628"
       height="320"
       width="1440"
       y="0"
       x="0"
       patternUnits="userSpaceOnUse"><g
         id="g630" /><g
         id="g632"><g
           id="g634"
           clip-path="url(#clipPath624)"><g
             id="g636"><path
               id="path638"
               style="fill:#000000;fill-opacity:1;fill-rule:nonzero;stroke:none"
               d="m 502.84,256.66 c 5.199,-7.582 -1.082,-9.098 -10.723,-8.992 -9.64,0.109 -12.73,-0.324 -13.867,1.57 -1.137,1.899 0.598,-3.679 2.383,-3.953 1.789,-0.269 18.414,-0.433 22.476,1.192 4.063,1.625 4.282,2.925 3.09,5.957 -1.191,3.035 -3.523,4.281 -3.359,4.226 z" /></g></g></g></pattern><clipPath
       id="clipPath674"><path
         d="M 0,0 H 1440 V 320 H 0 Z"
         id="path676"
         inkscape:connector-curvature="0" /></clipPath><mask
       id="mask678"><g
         id="g680"><g
           clip-path="url(#clipPath674)"
           id="g682"><path
             d="M 0,0 H 1440 V 320 H 0 Z"
             id="path684"
             style="fill:#000000;fill-opacity:0.2;fill-rule:nonzero;stroke:none"
             inkscape:connector-curvature="0" /></g></g></mask><clipPath
       id="clipPath690"><path
         d="M 0,0 H 1440 V 320 H 0 Z"
         id="path692"
         inkscape:connector-curvature="0" /></clipPath><clipPath
       id="clipPath694"><path
         d="M 0,0 H 1440 V 320 H 0 Z"
         id="path696"
         inkscape:connector-curvature="0" /></clipPath><pattern
       id="pattern698"
       height="320"
       width="1440"
       y="0"
       x="0"
       patternUnits="userSpaceOnUse"><g
         id="g700" /><g
         id="g702"><g
           id="g704"
           clip-path="url(#clipPath694)"><g
             id="g706"><path
               id="path708"
               style="fill:#000000;fill-opacity:1;fill-rule:nonzero;stroke:none"
               d="m 525.492,256.66 c 5.199,-7.582 -1.082,-9.098 -10.722,-8.992 -9.641,0.109 -12.731,-0.324 -13.868,1.57 -1.136,1.899 0.598,-3.679 2.383,-3.953 1.789,-0.269 18.418,-0.433 22.477,1.192 4.062,1.625 4.281,2.925 3.09,5.957 -1.192,3.035 -3.52,4.281 -3.36,4.226 z" /></g></g></g></pattern><clipPath
       id="clipPath730"><path
         d="M 0,0 H 1440 V 320 H 0 Z"
         id="path732"
         inkscape:connector-curvature="0" /></clipPath><mask
       id="mask734"><g
         id="g736"><g
           clip-path="url(#clipPath730)"
           id="g738"><path
             d="M 0,0 H 1440 V 320 H 0 Z"
             id="path740"
             style="fill:#000000;fill-opacity:0.2;fill-rule:nonzero;stroke:none"
             inkscape:connector-curvature="0" /></g></g></mask><clipPath
       id="clipPath746"><path
         d="M 0,0 H 1440 V 320 H 0 Z"
         id="path748"
         inkscape:connector-curvature="0" /></clipPath><clipPath
       id="clipPath750"><path
         d="M 0,0 H 1440 V 320 H 0 Z"
         id="path752"
         inkscape:connector-curvature="0" /></clipPath><pattern
       id="pattern754"
       height="320"
       width="1440"
       y="0"
       x="0"
       patternUnits="userSpaceOnUse"><g
         id="g756" /><g
         id="g758"><g
           id="g760"
           clip-path="url(#clipPath750)"><g
             id="g762"><path
               id="path764"
               style="fill:#000000;fill-opacity:1;fill-rule:nonzero;stroke:none"
               d="m 453.883,89.5 c 8.055,-11.746 -1.68,-14.098 -16.613,-13.93 -14.938,0.168 -19.719,-0.504 -21.481,2.434 -1.762,2.937 0.922,-5.707 3.691,-6.125 2.77,-0.418 28.528,-0.672 34.821,1.848 6.293,2.515 6.629,4.531 4.785,9.226 -1.848,4.699 -5.457,6.629 -5.203,6.547 z" /></g></g></g></pattern><clipPath
       id="clipPath800"><path
         d="M 0,0 H 1440 V 320 H 0 Z"
         id="path802"
         inkscape:connector-curvature="0" /></clipPath><mask
       id="mask804"><g
         id="g806"><g
           clip-path="url(#clipPath800)"
           id="g808"><path
             d="M 0,0 H 1440 V 320 H 0 Z"
             id="path810"
             style="fill:#000000;fill-opacity:0.2;fill-rule:nonzero;stroke:none"
             inkscape:connector-curvature="0" /></g></g></mask><clipPath
       id="clipPath816"><path
         d="M 0,0 H 1440 V 320 H 0 Z"
         id="path818"
         inkscape:connector-curvature="0" /></clipPath><clipPath
       id="clipPath820"><path
         d="M 0,0 H 1440 V 320 H 0 Z"
         id="path822"
         inkscape:connector-curvature="0" /></clipPath><pattern
       id="pattern824"
       height="320"
       width="1440"
       y="0"
       x="0"
       patternUnits="userSpaceOnUse"><g
         id="g826" /><g
         id="g828"><g
           id="g830"
           clip-path="url(#clipPath820)"><g
             id="g832"><path
               id="path834"
               style="fill:#000000;fill-opacity:1;fill-rule:nonzero;stroke:none"
               d="m 488.977,89.5 c 8.054,-11.746 -1.68,-14.098 -16.614,-13.93 -14.937,0.168 -19.718,-0.504 -21.48,2.434 -1.762,2.937 0.922,-5.707 3.691,-6.125 2.77,-0.418 28.528,-0.672 34.821,1.848 6.293,2.515 6.628,4.531 4.781,9.226 -1.844,4.699 -5.453,6.629 -5.199,6.547 z" /></g></g></g></pattern></defs><g
     id="g6307"
     transform="translate(-443.32098,-83.294289)"><g
       id="g11733"
       transform="matrix(4.5395627,0,0,4.5395627,-6903.2795,-2129.2893)"><g
         id="g1"
         transform="matrix(2.6821403,0,0,2.6821403,-2817.1526,-929.95827)"><path
           id="path3298-6-5-2-4"
           d="m 1688.3588,558.25412 c 0,1.88217 -6.096,3.4079 -13.6159,3.4079 -7.5198,0 -13.6159,-1.52573 -13.6159,-3.4079 0,-1.88208 6.0961,-3.40786 13.6159,-3.40786 7.5199,0 13.6159,1.52578 13.6159,3.40786 z"
           style="color:#000000;display:none;overflow:visible;visibility:visible;fill:none;stroke:#000000;stroke-width:1.49705;stroke-linecap:round;stroke-linejoin:round;stroke-miterlimit:4;stroke-dashoffset:0;stroke-opacity:1;marker:none;enable-background:accumulate"
           inkscape:connector-curvature="0" /><path
           style="color:#000000;display:none;overflow:visible;visibility:visible;fill:none;stroke:#000000;stroke-width:1.49705;stroke-linecap:round;stroke-linejoin:round;stroke-miterlimit:4;stroke-dasharray:none;stroke-dashoffset:0;stroke-opacity:1;marker:none;enable-background:accumulate"
           d="m 1674.743,553.33481 c -9.8893,0 -17.9078,2.35224 -17.9078,5.2473 0,2.89502 8.0185,5.23279 17.9078,5.23279 9.8892,0 17.9077,-2.33777 17.9077,-5.23279 0,-2.89506 -8.0185,-5.2473 -17.9077,-5.2473 z"
           id="path3300-9-8-3-3"
           inkscape:connector-curvature="0"
           sodipodi:nodetypes="sssss" /><g
           id="g8744-1-2-0-2"
           transform="matrix(0.5988207,0,0,0.5988207,929.69354,-36.867881)"><path
             sodipodi:nodetypes="sssss"
             inkscape:connector-curvature="0"
             style="color:#000000;display:inline;overflow:visible;visibility:visible;fill:#000000;fill-opacity:1;fill-rule:nonzero;stroke:none;stroke-width:4;marker:none;enable-background:accumulate"
             d="m 1250.3985,972.41196 c 0,3.19142 -1.3204,5.77859 -2.9492,5.77859 -1.6288,0 -2.9492,-2.58717 -2.9492,-5.77859 0,-3.19142 1.3204,-5.77858 2.9492,-5.77858 1.6288,0 2.9492,2.58716 2.9492,5.77858 z"
             id="path3308-6-4-3-3-2"
             inkscape:label="eye r" /><path
             sodipodi:nodetypes="sssss"
             inkscape:connector-curvature="0"
             style="color:#000000;display:inline;overflow:visible;visibility:visible;fill:#000000;fill-opacity:1;fill-rule:nonzero;stroke:none;stroke-width:4;marker:none;enable-background:accumulate"
             d="m 1242.6582,972.40737 c 0,3.19142 -1.3204,5.77859 -2.9493,5.77859 -1.6288,0 -2.9492,-2.58717 -2.9492,-5.77859 0,-3.19143 1.3204,-5.77859 2.9492,-5.77859 1.6289,0 2.9493,2.58716 2.9493,5.77859 z"
             id="path3308-6-8-1-0-0-0"
             inkscape:label="eye l" /><path
             style="fill:#000000;fill-opacity:1;stroke:none;stroke-width:0.101332;stroke-linecap:round;stroke-linejoin:bevel;stroke-opacity:1"
             d="m 1232.7179,995.38731 c -2.1939,-0.0349 -4.8538,-0.60536 -5.7004,-2.91963 -0.892,-2.08089 -0.2983,-4.66723 1.3015,-6.24589 -4.6143,-5.70246 -5.636,-14.00186 -2.5289,-20.64663 3.1601,-7.09745 10.7772,-11.88255 18.5464,-11.59239 8.2185,0.0801 15.964,5.86789 18.4002,13.71386 1.9341,5.81255 0.9122,12.44162 -2.5512,17.47622 2.4327,1.24816 4.9633,3.896 3.9871,6.85208 -1.0696,2.71319 -4.3924,3.03685 -6.9159,3.27893 -3.8582,0.0122 -7.758,0.38644 -11.5881,-0.19899 -1.8632,-0.32047 -3.8075,0.43803 -5.7319,0.25324 -2.4054,0.0206 -4.8142,0.12113 -7.2188,0.0292 z m 7.6211,-1.97663 c -4.0226,-0.78744 -7.837,-2.74324 -10.6859,-5.71276 -1.7577,1.4321 -1.4879,5.20349 1.117,5.52508 3.1552,0.4549 6.3899,0.1966 9.5689,0.18768 z m 16.8766,-0.0416 c 1.8086,-0.25725 4.3637,-0.19584 5.1959,-2.15014 0.2858,-2.48795 -2.2641,-3.99466 -4.2175,-4.86701 -3.9733,-1.65973 -8.9704,-1.84468 -12.609,0.71692 -1.8798,1.21592 -2.5065,4.59592 -0.3834,5.86273 2.877,0.92365 5.9701,0.40892 8.942,0.51242 1.0241,-0.0182 2.049,-0.0221 3.072,-0.0749 z m -15.1974,-1.94353 c -0.5841,-2.99666 1.4683,-5.84315 4.1618,-6.95969 3.7705,-1.71538 8.2073,-1.61415 12.0489,-0.17679 4.7407,-6.28708 4.4685,-15.73111 -0.6309,-21.73271 -4.6155,-5.81875 -13.0557,-8.05192 -19.9653,-5.38154 -6.8318,2.44186 -11.6668,9.41532 -11.5556,16.66581 -0.1214,7.63371 5.284,14.93294 12.6415,17.00905 1.0089,0.22992 2.4293,0.75206 3.2996,0.57587 z"
             id="path27" /></g><g
           id="g30"
           style="fill:#000000;fill-opacity:1"><path
             style="fill:#000000;fill-opacity:1;stroke:none;stroke-width:1.21358;stroke-linecap:round;stroke-linejoin:bevel;stroke-dasharray:none;stroke-opacity:1"
             d="m 1672.3745,562.31182 c -5.0534,-0.26015 -8.9495,-1.08515 -10.7372,-2.27355 -0.7502,-0.49877 -1.1439,-1.04727 -1.2006,-1.67267 -0.038,-0.42034 0.048,-0.71448 0.3318,-1.13726 0.3519,-0.5236 1.2839,-1.13969 2.2944,-1.51672 l 0.3061,-0.1142 -6e-4,0.52037 c -3e-4,0.28621 0.019,0.6179 0.044,0.7371 l 0.044,0.21672 -0.562,0.28323 c -0.7537,0.37981 -1.1003,0.7011 -1.0332,0.95765 0.082,0.31371 1.0027,0.86235 2.0668,1.2317 1.6999,0.58996 4.1069,1.00986 7.2332,1.26178 1.2412,0.10002 5.9175,0.1001 7.1602,8e-5 4.5557,-0.36651 7.8456,-1.1562 9.026,-2.16654 0.3163,-0.27077 0.349,-0.40857 0.1525,-0.64213 -0.1501,-0.17836 -0.1522,-0.19194 -0.06,-0.38542 0.095,-0.19996 0.2121,-0.73707 0.2411,-1.10937 l 0.015,-0.19621 0.3622,0.27148 c 1.1515,0.86335 1.3197,1.96932 0.4438,2.91946 -1.2383,1.34348 -4.8714,2.33633 -9.9685,2.72421 -1.474,0.11216 -4.7896,0.16075 -6.159,0.0902 z"
             id="path29" /><path
             style="fill:#000000;fill-opacity:1;stroke:none;stroke-width:1.21358;stroke-linecap:round;stroke-linejoin:bevel;stroke-dasharray:none;stroke-opacity:1"
             d="m 1671.4627,564.43213 c -6.983,-0.40161 -12.416,-1.88681 -14.4512,-3.95049 -1.1701,-1.18645 -1.1828,-2.57781 -0.034,-3.79062 0.9094,-0.96051 2.3996,-1.74915 4.5646,-2.41568 1.0498,-0.32317 2.5003,-0.67902 2.553,-0.6263 0.022,0.0216 -0.024,0.128 -0.1014,0.23654 -0.077,0.10854 -0.2377,0.45487 -0.3565,0.76961 l -0.216,0.57226 -0.7272,0.20028 c -2.1376,0.58876 -3.7394,1.32909 -4.565,2.10989 -0.4422,0.41827 -0.5822,0.69969 -0.5487,1.10347 0.035,0.42152 0.3064,0.79055 0.9233,1.25548 1.8447,1.39015 6.0389,2.50437 11.1392,2.95922 2.9973,0.26729 7.197,0.26729 10.1942,0 5.5636,-0.49616 10.0247,-1.77614 11.5675,-3.31893 0.7004,-0.70038 0.6861,-1.30124 -0.047,-1.9918 -0.4321,-0.40684 -0.7509,-0.61875 -1.4778,-0.9822 -0.5982,-0.29912 -2.0279,-0.86522 -2.1851,-0.86522 -0.044,0 -0.1,-0.0888 -0.1232,-0.19721 -0.066,-0.30556 -0.3679,-0.93819 -0.6074,-1.27147 -0.1629,-0.22671 -0.1894,-0.29357 -0.1068,-0.26943 0.061,0.0177 0.4103,0.11823 0.7774,0.22348 2.7817,0.79754 4.8089,2.02096 5.4508,3.28954 0.7883,1.55802 -0.1309,3.12482 -2.5503,4.34743 -2.4916,1.25905 -6.209,2.09487 -11.2439,2.52806 -1.3265,0.11413 -6.3644,0.16824 -7.8277,0.0841 z"
             id="path30" /></g></g></g></g></svg>
