<?xml version="1.0" encoding="UTF-8" standalone="no"?>
<svg
   version="1.1"
   viewBox="0 0 512 512.00001"
   id="svg2"
   xml:space="preserve"
   inkscape:version="1.3 (0e150ed6c4, 2023-07-21)"
   sodipodi:docname="ddnet.svg"
   width="512"
   height="512"
   xmlns:inkscape="http://www.inkscape.org/namespaces/inkscape"
   xmlns:sodipodi="http://sodipodi.sourceforge.net/DTD/sodipodi-0.dtd"
   xmlns="http://www.w3.org/2000/svg"
   xmlns:svg="http://www.w3.org/2000/svg"
   xmlns:rdf="http://www.w3.org/1999/02/22-rdf-syntax-ns#"
   xmlns:cc="http://creativecommons.org/ns#"
   xmlns:dc="http://purl.org/dc/elements/1.1/"><sodipodi:namedview
     pagecolor="#ffffff"
     bordercolor="#666666"
     borderopacity="1"
     objecttolerance="10"
     gridtolerance="10"
     guidetolerance="10"
     inkscape:pageopacity="0"
     inkscape:pageshadow="2"
     inkscape:window-width="1920"
     inkscape:window-height="1011"
     id="namedview4865"
     showgrid="false"
     fit-margin-top="20"
     fit-margin-left="20"
     fit-margin-bottom="20"
     fit-margin-right="20"
     inkscape:zoom="1.3535156"
     inkscape:cx="232.35787"
     inkscape:cy="315.84416"
     inkscape:window-x="1280"
     inkscape:window-y="32"
     inkscape:window-maximized="1"
     inkscape:current-layer="g8744-1-2-0-2"
     inkscape:document-rotation="0"
     inkscape:showpageshadow="2"
     inkscape:pagecheckerboard="0"
     inkscape:deskcolor="#d1d1d1" /><metadata
     id="metadata8"><rdf:RDF><cc:Work
         rdf:about=""><dc:format>image/svg+xml</dc:format><dc:type
           rdf:resource="http://purl.org/dc/dcmitype/StillImage" /></cc:Work></rdf:RDF></metadata><defs
     id="defs6"><clipPath
       id="clipPath100"><path
         d="M 0,0 H 1440 V 320 H 0 Z"
         id="path102"
         inkscape:connector-curvature="0" /></clipPath><mask
       id="mask104"><g
         id="g106"><g
           clip-path="url(#clipPath100)"
           id="g108"><path
             d="M 0,0 H 1440 V 320 H 0 Z"
             id="path110"
             style="fill:#000000;fill-opacity:0.2;fill-rule:nonzero;stroke:none"
             inkscape:connector-curvature="0" /></g></g></mask><clipPath
       id="clipPath116"><path
         d="M 0,0 H 1440 V 320 H 0 Z"
         id="path118"
         inkscape:connector-curvature="0" /></clipPath><clipPath
       id="clipPath120"><path
         d="M 0,0 H 1440 V 320 H 0 Z"
         id="path122"
         inkscape:connector-curvature="0" /></clipPath><pattern
       id="pattern124"
       height="320"
       width="1440"
       y="0"
       x="0"
       patternUnits="userSpaceOnUse"><g
         id="g126" /><g
         id="g128"><g
           id="g130"
           clip-path="url(#clipPath120)"><g
             id="g132"><path
               id="path134"
               style="fill:#000000;fill-opacity:1;fill-rule:nonzero;stroke:none"
               d="m 323.945,218.777 c 6.078,-8.867 -1.269,-10.64 -12.543,-10.515 -11.277,0.129 -14.886,-0.379 -16.218,1.84 -1.329,2.214 0.699,-4.309 2.789,-4.625 2.089,-0.317 21.535,-0.508 26.289,1.394 4.75,1.899 5.004,3.418 3.609,6.965 -1.394,3.551 -4.117,5.004 -3.926,4.941 z" /></g></g></g></pattern><clipPath
       id="clipPath170"><path
         d="M 0,0 H 1440 V 320 H 0 Z"
         id="path172"
         inkscape:connector-curvature="0" /></clipPath><mask
       id="mask174"><g
         id="g176"><g
           clip-path="url(#clipPath170)"
           id="g178"><path
             d="M 0,0 H 1440 V 320 H 0 Z"
             id="path180"
             style="fill:#000000;fill-opacity:0.2;fill-rule:nonzero;stroke:none"
             inkscape:connector-curvature="0" /></g></g></mask><clipPath
       id="clipPath186"><path
         d="M 0,0 H 1440 V 320 H 0 Z"
         id="path188"
         inkscape:connector-curvature="0" /></clipPath><clipPath
       id="clipPath190"><path
         d="M 0,0 H 1440 V 320 H 0 Z"
         id="path192"
         inkscape:connector-curvature="0" /></clipPath><pattern
       id="pattern194"
       height="320"
       width="1440"
       y="0"
       x="0"
       patternUnits="userSpaceOnUse"><g
         id="g196" /><g
         id="g198"><g
           id="g200"
           clip-path="url(#clipPath190)"><g
             id="g202"><path
               id="path204"
               style="fill:#000000;fill-opacity:1;fill-rule:nonzero;stroke:none"
               d="m 350.438,218.777 c 6.082,-8.867 -1.266,-10.64 -12.543,-10.515 -11.278,0.129 -14.887,-0.379 -16.215,1.84 -1.332,2.214 0.695,-4.309 2.785,-4.625 2.09,-0.317 21.539,-0.508 26.289,1.394 4.75,1.899 5.004,3.418 3.609,6.965 -1.39,3.551 -4.117,5.004 -3.925,4.941 z" /></g></g></g></pattern><clipPath
       id="clipPath226"><path
         d="M 0,0 H 1440 V 320 H 0 Z"
         id="path228"
         inkscape:connector-curvature="0" /></clipPath><mask
       id="mask230"><g
         id="g232"><g
           clip-path="url(#clipPath226)"
           id="g234"><path
             d="M 0,0 H 1440 V 320 H 0 Z"
             id="path236"
             style="fill:#000000;fill-opacity:0.2;fill-rule:nonzero;stroke:none"
             inkscape:connector-curvature="0" /></g></g></mask><clipPath
       id="clipPath242"><path
         d="M 0,0 H 1440 V 320 H 0 Z"
         id="path244"
         inkscape:connector-curvature="0" /></clipPath><clipPath
       id="clipPath246"><path
         d="M 0,0 H 1440 V 320 H 0 Z"
         id="path248"
         inkscape:connector-curvature="0" /></clipPath><pattern
       id="pattern250"
       height="320"
       width="1440"
       y="0"
       x="0"
       patternUnits="userSpaceOnUse"><g
         id="g252" /><g
         id="g254"><g
           id="g256"
           clip-path="url(#clipPath246)"><g
             id="g258"><path
               id="path260"
               style="fill:#000000;fill-opacity:1;fill-rule:nonzero;stroke:none"
               d="m 81.828,141.145 c 7.988,-11.653 -1.664,-13.985 -16.48,-13.817 -14.817,0.164 -19.563,-0.5 -21.313,2.414 -1.746,2.914 0.918,-5.66 3.664,-6.078 2.746,-0.414 28.301,-0.664 34.543,1.832 6.242,2.496 6.578,4.496 4.746,9.156 -1.832,4.66 -5.41,6.575 -5.16,6.493 z" /></g></g></g></pattern><clipPath
       id="clipPath296"><path
         d="M 0,0 H 1440 V 320 H 0 Z"
         id="path298"
         inkscape:connector-curvature="0" /></clipPath><mask
       id="mask300"><g
         id="g302"><g
           clip-path="url(#clipPath296)"
           id="g304"><path
             d="M 0,0 H 1440 V 320 H 0 Z"
             id="path306"
             style="fill:#000000;fill-opacity:0.2;fill-rule:nonzero;stroke:none"
             inkscape:connector-curvature="0" /></g></g></mask><clipPath
       id="clipPath312"><path
         d="M 0,0 H 1440 V 320 H 0 Z"
         id="path314"
         inkscape:connector-curvature="0" /></clipPath><clipPath
       id="clipPath316"><path
         d="M 0,0 H 1440 V 320 H 0 Z"
         id="path318"
         inkscape:connector-curvature="0" /></clipPath><pattern
       id="pattern320"
       height="320"
       width="1440"
       y="0"
       x="0"
       patternUnits="userSpaceOnUse"><g
         id="g322" /><g
         id="g324"><g
           id="g326"
           clip-path="url(#clipPath316)"><g
             id="g328"><path
               id="path330"
               style="fill:#000000;fill-opacity:1;fill-rule:nonzero;stroke:none"
               d="m 116.641,141.145 c 7.992,-11.653 -1.664,-13.985 -16.481,-13.817 -14.816,0.164 -19.562,-0.5 -21.308,2.414 -1.75,2.914 0.914,-5.66 3.66,-6.078 2.746,-0.414 28.3,-0.664 34.547,1.832 6.242,2.496 6.574,4.496 4.742,9.156 -1.832,4.66 -5.41,6.575 -5.16,6.493 z" /></g></g></g></pattern><clipPath
       id="clipPath352"><path
         d="M 0,0 H 1440 V 320 H 0 Z"
         id="path354"
         inkscape:connector-curvature="0" /></clipPath><mask
       id="mask356"><g
         id="g358"><g
           clip-path="url(#clipPath352)"
           id="g360"><path
             d="M 0,0 H 1440 V 320 H 0 Z"
             id="path362"
             style="fill:#000000;fill-opacity:0.2;fill-rule:nonzero;stroke:none"
             inkscape:connector-curvature="0" /></g></g></mask><clipPath
       id="clipPath368"><path
         d="M 0,0 H 1440 V 320 H 0 Z"
         id="path370"
         inkscape:connector-curvature="0" /></clipPath><clipPath
       id="clipPath372"><path
         d="M 0,0 H 1440 V 320 H 0 Z"
         id="path374"
         inkscape:connector-curvature="0" /></clipPath><pattern
       id="pattern376"
       height="320"
       width="1440"
       y="0"
       x="0"
       patternUnits="userSpaceOnUse"><g
         id="g378" /><g
         id="g380"><g
           id="g382"
           clip-path="url(#clipPath372)"><g
             id="g384"><path
               id="path386"
               style="fill:#000000;fill-opacity:1;fill-rule:nonzero;stroke:none"
               d="m 134.754,269.227 c 5.066,-7.391 -1.055,-8.868 -10.449,-8.762 -9.395,0.105 -12.407,-0.317 -13.512,1.531 -1.109,1.844 0.578,-3.59 2.32,-3.855 1.742,-0.262 17.946,-0.422 21.903,1.164 3.961,1.582 4.172,2.847 3.011,5.804 -1.164,2.953 -3.433,4.168 -3.273,4.118 z" /></g></g></g></pattern><clipPath
       id="clipPath422"><path
         d="M 0,0 H 1440 V 320 H 0 Z"
         id="path424"
         inkscape:connector-curvature="0" /></clipPath><mask
       id="mask426"><g
         id="g428"><g
           clip-path="url(#clipPath422)"
           id="g430"><path
             d="M 0,0 H 1440 V 320 H 0 Z"
             id="path432"
             style="fill:#000000;fill-opacity:0.2;fill-rule:nonzero;stroke:none"
             inkscape:connector-curvature="0" /></g></g></mask><clipPath
       id="clipPath438"><path
         d="M 0,0 H 1440 V 320 H 0 Z"
         id="path440"
         inkscape:connector-curvature="0" /></clipPath><clipPath
       id="clipPath442"><path
         d="M 0,0 H 1440 V 320 H 0 Z"
         id="path444"
         inkscape:connector-curvature="0" /></clipPath><pattern
       id="pattern446"
       height="320"
       width="1440"
       y="0"
       x="0"
       patternUnits="userSpaceOnUse"><g
         id="g448" /><g
         id="g450"><g
           id="g452"
           clip-path="url(#clipPath442)"><g
             id="g454"><path
               id="path456"
               style="fill:#000000;fill-opacity:1;fill-rule:nonzero;stroke:none"
               d="m 156.828,269.227 c 5.067,-7.391 -1.055,-8.868 -10.449,-8.762 -9.399,0.105 -12.406,-0.317 -13.512,1.531 -1.109,1.844 0.578,-3.59 2.321,-3.855 1.742,-0.262 17.945,-0.422 21.902,1.164 3.961,1.582 4.172,2.847 3.008,5.804 -1.16,2.953 -3.43,4.168 -3.27,4.118 z" /></g></g></g></pattern><clipPath
       id="clipPath478"><path
         d="M 0,0 H 1440 V 320 H 0 Z"
         id="path480"
         inkscape:connector-curvature="0" /></clipPath><mask
       id="mask482"><g
         id="g484"><g
           clip-path="url(#clipPath478)"
           id="g486"><path
             d="M 0,0 H 1440 V 320 H 0 Z"
             id="path488"
             style="fill:#000000;fill-opacity:0.2;fill-rule:nonzero;stroke:none"
             inkscape:connector-curvature="0" /></g></g></mask><clipPath
       id="clipPath494"><path
         d="M 0,0 H 1440 V 320 H 0 Z"
         id="path496"
         inkscape:connector-curvature="0" /></clipPath><clipPath
       id="clipPath498"><path
         d="M 0,0 H 1440 V 320 H 0 Z"
         id="path500"
         inkscape:connector-curvature="0" /></clipPath><pattern
       id="pattern502"
       height="320"
       width="1440"
       y="0"
       x="0"
       patternUnits="userSpaceOnUse"><g
         id="g504" /><g
         id="g506"><g
           id="g508"
           clip-path="url(#clipPath498)"><g
             id="g510"><path
               id="path512"
               style="fill:#000000;fill-opacity:1;fill-rule:nonzero;stroke:none"
               d="m 225.184,53.727 c 10.726,-15.641 -2.235,-18.77 -22.122,-18.547 -19.886,0.222 -26.257,-0.672 -28.601,3.238 -2.348,3.91 1.227,-7.598 4.914,-8.156 3.687,-0.559 37.988,-0.891 46.367,2.461 8.379,3.351 8.828,6.031 6.371,12.289 -2.461,6.258 -7.265,8.828 -6.929,8.715 z" /></g></g></g></pattern><clipPath
       id="clipPath548"><path
         d="M 0,0 H 1440 V 320 H 0 Z"
         id="path550"
         inkscape:connector-curvature="0" /></clipPath><mask
       id="mask552"><g
         id="g554"><g
           clip-path="url(#clipPath548)"
           id="g556"><path
             d="M 0,0 H 1440 V 320 H 0 Z"
             id="path558"
             style="fill:#000000;fill-opacity:0.2;fill-rule:nonzero;stroke:none"
             inkscape:connector-curvature="0" /></g></g></mask><clipPath
       id="clipPath564"><path
         d="M 0,0 H 1440 V 320 H 0 Z"
         id="path566"
         inkscape:connector-curvature="0" /></clipPath><clipPath
       id="clipPath568"><path
         d="M 0,0 H 1440 V 320 H 0 Z"
         id="path570"
         inkscape:connector-curvature="0" /></clipPath><pattern
       id="pattern572"
       height="320"
       width="1440"
       y="0"
       x="0"
       patternUnits="userSpaceOnUse"><g
         id="g574" /><g
         id="g576"><g
           id="g578"
           clip-path="url(#clipPath568)"><g
             id="g580"><path
               id="path582"
               style="fill:#000000;fill-opacity:1;fill-rule:nonzero;stroke:none"
               d="m 271.914,53.727 c 10.727,-15.641 -2.234,-18.77 -22.121,-18.547 -19.891,0.222 -26.258,-0.672 -28.605,3.238 -2.344,3.91 1.23,-7.598 4.917,-8.156 3.688,-0.559 37.989,-0.891 46.368,2.461 8.379,3.351 8.824,6.031 6.367,12.289 -2.457,6.258 -7.262,8.828 -6.926,8.715 z" /></g></g></g></pattern><clipPath
       id="clipPath604"><path
         d="M 0,0 H 1440 V 320 H 0 Z"
         id="path606"
         inkscape:connector-curvature="0" /></clipPath><mask
       id="mask608"><g
         id="g610"><g
           clip-path="url(#clipPath604)"
           id="g612"><path
             d="M 0,0 H 1440 V 320 H 0 Z"
             id="path614"
             style="fill:#000000;fill-opacity:0.2;fill-rule:nonzero;stroke:none"
             inkscape:connector-curvature="0" /></g></g></mask><clipPath
       id="clipPath620"><path
         d="M 0,0 H 1440 V 320 H 0 Z"
         id="path622"
         inkscape:connector-curvature="0" /></clipPath><clipPath
       id="clipPath624"><path
         d="M 0,0 H 1440 V 320 H 0 Z"
         id="path626"
         inkscape:connector-curvature="0" /></clipPath><pattern
       id="pattern628"
       height="320"
       width="1440"
       y="0"
       x="0"
       patternUnits="userSpaceOnUse"><g
         id="g630" /><g
         id="g632"><g
           id="g634"
           clip-path="url(#clipPath624)"><g
             id="g636"><path
               id="path638"
               style="fill:#000000;fill-opacity:1;fill-rule:nonzero;stroke:none"
               d="m 502.84,256.66 c 5.199,-7.582 -1.082,-9.098 -10.723,-8.992 -9.64,0.109 -12.73,-0.324 -13.867,1.57 -1.137,1.899 0.598,-3.679 2.383,-3.953 1.789,-0.269 18.414,-0.433 22.476,1.192 4.063,1.625 4.282,2.925 3.09,5.957 -1.191,3.035 -3.523,4.281 -3.359,4.226 z" /></g></g></g></pattern><clipPath
       id="clipPath674"><path
         d="M 0,0 H 1440 V 320 H 0 Z"
         id="path676"
         inkscape:connector-curvature="0" /></clipPath><mask
       id="mask678"><g
         id="g680"><g
           clip-path="url(#clipPath674)"
           id="g682"><path
             d="M 0,0 H 1440 V 320 H 0 Z"
             id="path684"
             style="fill:#000000;fill-opacity:0.2;fill-rule:nonzero;stroke:none"
             inkscape:connector-curvature="0" /></g></g></mask><clipPath
       id="clipPath690"><path
         d="M 0,0 H 1440 V 320 H 0 Z"
         id="path692"
         inkscape:connector-curvature="0" /></clipPath><clipPath
       id="clipPath694"><path
         d="M 0,0 H 1440 V 320 H 0 Z"
         id="path696"
         inkscape:connector-curvature="0" /></clipPath><pattern
       id="pattern698"
       height="320"
       width="1440"
       y="0"
       x="0"
       patternUnits="userSpaceOnUse"><g
         id="g700" /><g
         id="g702"><g
           id="g704"
           clip-path="url(#clipPath694)"><g
             id="g706"><path
               id="path708"
               style="fill:#000000;fill-opacity:1;fill-rule:nonzero;stroke:none"
               d="m 525.492,256.66 c 5.199,-7.582 -1.082,-9.098 -10.722,-8.992 -9.641,0.109 -12.731,-0.324 -13.868,1.57 -1.136,1.899 0.598,-3.679 2.383,-3.953 1.789,-0.269 18.418,-0.433 22.477,1.192 4.062,1.625 4.281,2.925 3.09,5.957 -1.192,3.035 -3.52,4.281 -3.36,4.226 z" /></g></g></g></pattern><clipPath
       id="clipPath730"><path
         d="M 0,0 H 1440 V 320 H 0 Z"
         id="path732"
         inkscape:connector-curvature="0" /></clipPath><mask
       id="mask734"><g
         id="g736"><g
           clip-path="url(#clipPath730)"
           id="g738"><path
             d="M 0,0 H 1440 V 320 H 0 Z"
             id="path740"
             style="fill:#000000;fill-opacity:0.2;fill-rule:nonzero;stroke:none"
             inkscape:connector-curvature="0" /></g></g></mask><clipPath
       id="clipPath746"><path
         d="M 0,0 H 1440 V 320 H 0 Z"
         id="path748"
         inkscape:connector-curvature="0" /></clipPath><clipPath
       id="clipPath750"><path
         d="M 0,0 H 1440 V 320 H 0 Z"
         id="path752"
         inkscape:connector-curvature="0" /></clipPath><pattern
       id="pattern754"
       height="320"
       width="1440"
       y="0"
       x="0"
       patternUnits="userSpaceOnUse"><g
         id="g756" /><g
         id="g758"><g
           id="g760"
           clip-path="url(#clipPath750)"><g
             id="g762"><path
               id="path764"
               style="fill:#000000;fill-opacity:1;fill-rule:nonzero;stroke:none"
               d="m 453.883,89.5 c 8.055,-11.746 -1.68,-14.098 -16.613,-13.93 -14.938,0.168 -19.719,-0.504 -21.481,2.434 -1.762,2.937 0.922,-5.707 3.691,-6.125 2.77,-0.418 28.528,-0.672 34.821,1.848 6.293,2.515 6.629,4.531 4.785,9.226 -1.848,4.699 -5.457,6.629 -5.203,6.547 z" /></g></g></g></pattern><clipPath
       id="clipPath800"><path
         d="M 0,0 H 1440 V 320 H 0 Z"
         id="path802"
         inkscape:connector-curvature="0" /></clipPath><mask
       id="mask804"><g
         id="g806"><g
           clip-path="url(#clipPath800)"
           id="g808"><path
             d="M 0,0 H 1440 V 320 H 0 Z"
             id="path810"
             style="fill:#000000;fill-opacity:0.2;fill-rule:nonzero;stroke:none"
             inkscape:connector-curvature="0" /></g></g></mask><clipPath
       id="clipPath816"><path
         d="M 0,0 H 1440 V 320 H 0 Z"
         id="path818"
         inkscape:connector-curvature="0" /></clipPath><clipPath
       id="clipPath820"><path
         d="M 0,0 H 1440 V 320 H 0 Z"
         id="path822"
         inkscape:connector-curvature="0" /></clipPath><pattern
       id="pattern824"
       height="320"
       width="1440"
       y="0"
       x="0"
       patternUnits="userSpaceOnUse"><g
         id="g826" /><g
         id="g828"><g
           id="g830"
           clip-path="url(#clipPath820)"><g
             id="g832"><path
               id="path834"
               style="fill:#000000;fill-opacity:1;fill-rule:nonzero;stroke:none"
               d="m 488.977,89.5 c 8.054,-11.746 -1.68,-14.098 -16.614,-13.93 -14.937,0.168 -19.718,-0.504 -21.48,2.434 -1.762,2.937 0.922,-5.707 3.691,-6.125 2.77,-0.418 28.528,-0.672 34.821,1.848 6.293,2.515 6.628,4.531 4.781,9.226 -1.844,4.699 -5.453,6.629 -5.199,6.547 z" /></g></g></g></pattern></defs><g
     id="g6307"
     transform="translate(-443.32098,-83.294289)"><g
       id="g11733"
       transform="matrix(4.5395627,0,0,4.5395627,-6903.2795,-2129.2893)"><g
         id="g1"
         transform="matrix(2.6821403,0,0,2.6821403,-2817.1526,-929.95827)"><path
           id="path3298-6-5-2-4"
           d="m 1688.3588,558.25412 c 0,1.88217 -6.096,3.4079 -13.6159,3.4079 -7.5198,0 -13.6159,-1.52573 -13.6159,-3.4079 0,-1.88208 6.0961,-3.40786 13.6159,-3.40786 7.5199,0 13.6159,1.52578 13.6159,3.40786 z"
           style="color:#000000;display:inline;overflow:visible;visibility:visible;fill:none;stroke:#6ac1ff;stroke-width:1.49705;stroke-linecap:round;stroke-linejoin:round;stroke-miterlimit:4;stroke-dashoffset:0;stroke-opacity:1;marker:none;enable-background:accumulate"
           inkscape:connector-curvature="0" /><path
           style="color:#000000;display:inline;overflow:visible;visibility:visible;fill:none;stroke:#4a9ce6;stroke-width:1.49705;stroke-linecap:round;stroke-linejoin:round;stroke-miterlimit:4;stroke-dasharray:none;stroke-dashoffset:0;stroke-opacity:1;marker:none;enable-background:accumulate"
           d="m 1674.743,553.33481 c -9.8893,0 -17.9078,2.35224 -17.9078,5.2473 0,2.89502 8.0185,5.23279 17.9078,5.23279 9.8892,0 17.9077,-2.33777 17.9077,-5.23279 0,-2.89506 -8.0185,-5.2473 -17.9077,-5.2473 z"
           id="path3300-9-8-3-3"
           inkscape:connector-curvature="0"
           sodipodi:nodetypes="sssss" /><g
           id="g8744-1-2-0-2"
           transform="matrix(0.5988207,0,0,0.5988207,929.69354,-36.867881)"><path
             d="m 1227.6825,990.32006 c 0,-4.10674 4.9224,-6.13008 9.5679,-6.05721 4.6456,0.0732 10.7334,2.74159 10.7334,6.48293 0,3.74044 -6.3572,3.56613 -10.7334,3.56613 -2.2043,0 -6.2112,0.27933 -7.9355,-0.69884 -1.7003,-0.96573 -1.7055,-3.29301 -1.6324,-3.29301 z"
             id="path468-4-1-4-0"
             style="fill:#000000;fill-opacity:1;fill-rule:nonzero;stroke:#000000;stroke-width:2.20433;stroke-linecap:butt;stroke-linejoin:round;stroke-miterlimit:4;stroke-dasharray:none;stroke-opacity:1"
             inkscape:connector-curvature="0" /><path
             d="m 1227.6825,990.32006 c 0,-4.10674 4.9224,-6.13008 9.5679,-6.05721 4.6456,0.0732 10.7334,2.74159 10.7334,6.48293 0,3.74044 -6.3572,3.56613 -10.7334,3.56613 -2.2043,0 -6.2112,0.27933 -7.9355,-0.69884 -1.7003,-0.96573 -1.7055,-3.29301 -1.6324,-3.29301 z"
             id="path472-7-0-6-5"
             style="fill:#a67e33;fill-opacity:1;fill-rule:nonzero;stroke:#000000;stroke-width:1.76346;stroke-linecap:butt;stroke-linejoin:round;stroke-miterlimit:4;stroke-dasharray:none;stroke-opacity:1"
             inkscape:connector-curvature="0" /><path
             d="m 1262.264,973.83207 c 0,10.16936 -8.2434,18.41259 -18.4125,18.41259 -10.1695,0 -18.4129,-8.24323 -18.4129,-18.41259 0,-10.1694 8.2434,-18.41293 18.4129,-18.41293 10.1691,0 18.4125,8.24353 18.4125,18.41293 z"
             id="path524-8-2-0-1"
             style="fill:#000000;fill-opacity:1;fill-rule:evenodd;stroke:#000000;stroke-width:2.9503;stroke-linecap:butt;stroke-linejoin:round;stroke-miterlimit:4;stroke-dasharray:none;stroke-opacity:1"
             inkscape:connector-curvature="0" /><path
             d="m 1262.264,973.83207 c 0,10.16936 -8.2434,18.41259 -18.4125,18.41259 -10.1695,0 -18.4129,-8.24323 -18.4129,-18.41259 0,-10.1694 8.2434,-18.41293 18.4129,-18.41293 10.1691,0 18.4125,8.24353 18.4125,18.41293 z"
             id="path528-4-3-9-8"
             style="fill:#ffa500;fill-opacity:1;fill-rule:evenodd;stroke:#000000;stroke-width:1.31125;stroke-linecap:butt;stroke-linejoin:miter;stroke-miterlimit:4;stroke-dasharray:none;stroke-opacity:1"
             inkscape:connector-curvature="0" /><path
             inkscape:connector-curvature="0"
             style="opacity:0.3;fill:#d40000;fill-opacity:1;fill-rule:evenodd;stroke:none"
             id="path530-6-0-0-5"
             d="m 1259.611,965.67966 c 0.1067,0.81406 0.2052,1.63468 0.2052,2.47993 0,10.49872 -8.5125,19.03322 -19.0126,19.03322 -4.8301,0 -9.1847,-1.86446 -12.5391,-4.83508 3.0222,5.51853 8.8526,9.28056 15.5906,9.28056 9.8386,0 17.7845,-7.96528 17.7845,-17.80359 0,-2.95063 -0.7602,-5.70596 -2.0286,-8.15504 z" /><path
             d="m 1243.0216,990.32006 c 0,-4.10674 4.9225,-6.13008 9.5682,-6.05721 4.6454,0.0732 10.7335,2.74159 10.7335,6.48293 0,3.74044 -6.3573,3.56613 -10.7335,3.56613 -2.2042,0 -6.2112,0.27933 -7.9371,-0.69884 -1.7003,-0.96573 -1.7039,-3.29301 -1.6311,-3.29301 z"
             id="path538-1-6-1-6"
             style="fill:#000000;fill-opacity:1;fill-rule:nonzero;stroke:#000000;stroke-width:2.20433;stroke-linecap:butt;stroke-linejoin:round;stroke-miterlimit:4;stroke-dasharray:none;stroke-opacity:1"
             inkscape:connector-curvature="0" /><path
             d="m 1243.0216,990.32006 c 0,-4.10674 4.9215,-6.13008 9.5682,-6.05721 4.6454,0.0732 10.7335,2.74159 10.7335,6.48293 0,3.74044 -6.3573,3.56613 -10.7335,3.56613 -2.2042,0 -6.2112,0.27933 -7.9371,-0.69884 -1.7003,-0.96573 -1.7039,-3.29301 -1.6311,-3.29301 z"
             id="path542-8-1-7-3"
             style="fill:#a67e33;fill-opacity:1;fill-rule:nonzero;stroke:#000000;stroke-width:1.76347;stroke-linecap:butt;stroke-linejoin:round;stroke-miterlimit:4;stroke-dasharray:none;stroke-opacity:1"
             inkscape:connector-curvature="0" /><path
             sodipodi:nodetypes="sssss"
             inkscape:connector-curvature="0"
             style="color:#000000;display:inline;overflow:visible;visibility:visible;fill:#1a1a1a;fill-opacity:1;fill-rule:nonzero;stroke:none;stroke-width:4;marker:none;enable-background:accumulate"
             d="m 1250.3985,972.41196 c 0,3.19142 -1.3204,5.77859 -2.9492,5.77859 -1.6288,0 -2.9492,-2.58717 -2.9492,-5.77859 0,-3.19142 1.3204,-5.77858 2.9492,-5.77858 1.6288,0 2.9492,2.58716 2.9492,5.77858 z"
             id="path3308-6-4-3-3-2" /><path
             sodipodi:nodetypes="sscsscs"
             id="path3312-6-2-2-6-9"
             d="m 1247.4573,966.63201 c -1.6288,0 -2.9479,2.5831 -2.9479,5.77452 0,2.7504 0.9879,5.06094 2.3012,5.6474 -0.6631,-1.06351 -1.084,-2.67727 -1.084,-4.48523 0,-3.19142 1.319,-5.77452 2.9478,-5.77452 0.2251,0 0.436,0.0518 0.6467,0.14527 -0.5076,-0.81052 -1.1575,-1.30744 -1.8638,-1.30744 z"
             style="color:#000000;display:inline;overflow:visible;visibility:visible;fill:#000000;fill-opacity:1;fill-rule:nonzero;stroke:none;stroke-width:4;marker:none;enable-background:accumulate"
             inkscape:connector-curvature="0" /><path
             sodipodi:nodetypes="sssss"
             inkscape:connector-curvature="0"
             style="color:#000000;display:inline;overflow:visible;visibility:visible;fill:#1a1a1a;fill-opacity:1;fill-rule:nonzero;stroke:none;stroke-width:4;marker:none;enable-background:accumulate"
             d="m 1242.6582,972.40737 c 0,3.19142 -1.3204,5.77859 -2.9493,5.77859 -1.6288,0 -2.9492,-2.58717 -2.9492,-5.77859 0,-3.19143 1.3204,-5.77859 2.9492,-5.77859 1.6289,0 2.9493,2.58716 2.9493,5.77859 z"
             id="path3308-6-8-1-0-0-0" /><path
             sodipodi:nodetypes="sscsscs"
             id="path3312-6-9-0-8-5-7"
             d="m 1239.7169,966.62741 c -1.6288,0 -2.9479,2.58311 -2.9479,5.77453 0,2.75039 0.988,5.06094 2.3013,5.64741 -0.6632,-1.06353 -1.0841,-2.67729 -1.0841,-4.48524 0,-3.19143 1.319,-5.77453 2.9479,-5.77453 0.2251,0 0.436,0.0518 0.6466,0.14528 -0.5076,-0.81052 -1.1574,-1.30745 -1.8638,-1.30745 z"
             style="color:#000000;display:inline;overflow:visible;visibility:visible;fill:#000000;fill-opacity:1;fill-rule:nonzero;stroke:none;stroke-width:4;marker:none;enable-background:accumulate"
             inkscape:connector-curvature="0" /><path
             style="opacity:0.3;fill:#000000;fill-opacity:1;stroke:none"
             d="m 1259.8795,986.97487 c -0.1667,3.16667 -3.5833,6.20833 -10.625,6.875 h 10 l 3.75,-1.625 -0.125,-3 z"
             id="path8730-0-4-4-0"
             inkscape:connector-curvature="0"
             sodipodi:nodetypes="cccccc" /></g></g></g></g></svg>
