<?xml version="1.0" encoding="UTF-8" standalone="no"?>
<svg
   version="1.1"
   viewBox="0 0 32 32"
   id="svg2"
   xml:space="preserve"
   inkscape:version="1.3 (0e150ed6c4, 2023-07-21)"
   sodipodi:docname="tees_symbolic.svg"
   width="20"
   height="20"
   xmlns:inkscape="http://www.inkscape.org/namespaces/inkscape"
   xmlns:sodipodi="http://sodipodi.sourceforge.net/DTD/sodipodi-0.dtd"
   xmlns="http://www.w3.org/2000/svg"
   xmlns:svg="http://www.w3.org/2000/svg"
   xmlns:rdf="http://www.w3.org/1999/02/22-rdf-syntax-ns#"
   xmlns:cc="http://creativecommons.org/ns#"
   xmlns:dc="http://purl.org/dc/elements/1.1/"><sodipodi:namedview
     pagecolor="#ffffff"
     bordercolor="#666666"
     borderopacity="1"
     objecttolerance="10"
     gridtolerance="10"
     guidetolerance="10"
     inkscape:pageopacity="0"
     inkscape:pageshadow="2"
     inkscape:window-width="1920"
     inkscape:window-height="1011"
     id="namedview4865"
     showgrid="false"
     fit-margin-top="20"
     fit-margin-left="20"
     fit-margin-bottom="20"
     fit-margin-right="20"
     inkscape:zoom="21.65625"
     inkscape:cx="10.458875"
     inkscape:cy="11.982684"
     inkscape:window-x="1280"
     inkscape:window-y="32"
     inkscape:window-maximized="1"
     inkscape:current-layer="g8744-1-2-0-2"
     inkscape:document-rotation="0"
     inkscape:showpageshadow="2"
     inkscape:pagecheckerboard="true"
     inkscape:deskcolor="#d1d1d1"
     showborder="true" /><metadata
     id="metadata8"><rdf:RDF><cc:Work
         rdf:about=""><dc:format>image/svg+xml</dc:format><dc:type
           rdf:resource="http://purl.org/dc/dcmitype/StillImage" /></cc:Work></rdf:RDF></metadata><defs
     id="defs6"><clipPath
       id="clipPath100"><path
         d="M 0,0 H 1440 V 320 H 0 Z"
         id="path102"
         inkscape:connector-curvature="0" /></clipPath><mask
       id="mask104"><g
         id="g106"><g
           clip-path="url(#clipPath100)"
           id="g108"><path
             d="M 0,0 H 1440 V 320 H 0 Z"
             id="path110"
             style="fill:#000000;fill-opacity:0.2;fill-rule:nonzero;stroke:none"
             inkscape:connector-curvature="0" /></g></g></mask><clipPath
       id="clipPath116"><path
         d="M 0,0 H 1440 V 320 H 0 Z"
         id="path118"
         inkscape:connector-curvature="0" /></clipPath><clipPath
       id="clipPath120"><path
         d="M 0,0 H 1440 V 320 H 0 Z"
         id="path122"
         inkscape:connector-curvature="0" /></clipPath><pattern
       id="pattern124"
       height="320"
       width="1440"
       y="0"
       x="0"
       patternUnits="userSpaceOnUse"><g
         id="g126" /><g
         id="g128"><g
           id="g130"
           clip-path="url(#clipPath120)"><g
             id="g132"><path
               id="path134"
               style="fill:#000000;fill-opacity:1;fill-rule:nonzero;stroke:none"
               d="m 323.945,218.777 c 6.078,-8.867 -1.269,-10.64 -12.543,-10.515 -11.277,0.129 -14.886,-0.379 -16.218,1.84 -1.329,2.214 0.699,-4.309 2.789,-4.625 2.089,-0.317 21.535,-0.508 26.289,1.394 4.75,1.899 5.004,3.418 3.609,6.965 -1.394,3.551 -4.117,5.004 -3.926,4.941 z" /></g></g></g></pattern><clipPath
       id="clipPath170"><path
         d="M 0,0 H 1440 V 320 H 0 Z"
         id="path172"
         inkscape:connector-curvature="0" /></clipPath><mask
       id="mask174"><g
         id="g176"><g
           clip-path="url(#clipPath170)"
           id="g178"><path
             d="M 0,0 H 1440 V 320 H 0 Z"
             id="path180"
             style="fill:#000000;fill-opacity:0.2;fill-rule:nonzero;stroke:none"
             inkscape:connector-curvature="0" /></g></g></mask><clipPath
       id="clipPath186"><path
         d="M 0,0 H 1440 V 320 H 0 Z"
         id="path188"
         inkscape:connector-curvature="0" /></clipPath><clipPath
       id="clipPath190"><path
         d="M 0,0 H 1440 V 320 H 0 Z"
         id="path192"
         inkscape:connector-curvature="0" /></clipPath><pattern
       id="pattern194"
       height="320"
       width="1440"
       y="0"
       x="0"
       patternUnits="userSpaceOnUse"><g
         id="g196" /><g
         id="g198"><g
           id="g200"
           clip-path="url(#clipPath190)"><g
             id="g202"><path
               id="path204"
               style="fill:#000000;fill-opacity:1;fill-rule:nonzero;stroke:none"
               d="m 350.438,218.777 c 6.082,-8.867 -1.266,-10.64 -12.543,-10.515 -11.278,0.129 -14.887,-0.379 -16.215,1.84 -1.332,2.214 0.695,-4.309 2.785,-4.625 2.09,-0.317 21.539,-0.508 26.289,1.394 4.75,1.899 5.004,3.418 3.609,6.965 -1.39,3.551 -4.117,5.004 -3.925,4.941 z" /></g></g></g></pattern><clipPath
       id="clipPath226"><path
         d="M 0,0 H 1440 V 320 H 0 Z"
         id="path228"
         inkscape:connector-curvature="0" /></clipPath><mask
       id="mask230"><g
         id="g232"><g
           clip-path="url(#clipPath226)"
           id="g234"><path
             d="M 0,0 H 1440 V 320 H 0 Z"
             id="path236"
             style="fill:#000000;fill-opacity:0.2;fill-rule:nonzero;stroke:none"
             inkscape:connector-curvature="0" /></g></g></mask><clipPath
       id="clipPath242"><path
         d="M 0,0 H 1440 V 320 H 0 Z"
         id="path244"
         inkscape:connector-curvature="0" /></clipPath><clipPath
       id="clipPath246"><path
         d="M 0,0 H 1440 V 320 H 0 Z"
         id="path248"
         inkscape:connector-curvature="0" /></clipPath><pattern
       id="pattern250"
       height="320"
       width="1440"
       y="0"
       x="0"
       patternUnits="userSpaceOnUse"><g
         id="g252" /><g
         id="g254"><g
           id="g256"
           clip-path="url(#clipPath246)"><g
             id="g258"><path
               id="path260"
               style="fill:#000000;fill-opacity:1;fill-rule:nonzero;stroke:none"
               d="m 81.828,141.145 c 7.988,-11.653 -1.664,-13.985 -16.48,-13.817 -14.817,0.164 -19.563,-0.5 -21.313,2.414 -1.746,2.914 0.918,-5.66 3.664,-6.078 2.746,-0.414 28.301,-0.664 34.543,1.832 6.242,2.496 6.578,4.496 4.746,9.156 -1.832,4.66 -5.41,6.575 -5.16,6.493 z" /></g></g></g></pattern><clipPath
       id="clipPath296"><path
         d="M 0,0 H 1440 V 320 H 0 Z"
         id="path298"
         inkscape:connector-curvature="0" /></clipPath><mask
       id="mask300"><g
         id="g302"><g
           clip-path="url(#clipPath296)"
           id="g304"><path
             d="M 0,0 H 1440 V 320 H 0 Z"
             id="path306"
             style="fill:#000000;fill-opacity:0.2;fill-rule:nonzero;stroke:none"
             inkscape:connector-curvature="0" /></g></g></mask><clipPath
       id="clipPath312"><path
         d="M 0,0 H 1440 V 320 H 0 Z"
         id="path314"
         inkscape:connector-curvature="0" /></clipPath><clipPath
       id="clipPath316"><path
         d="M 0,0 H 1440 V 320 H 0 Z"
         id="path318"
         inkscape:connector-curvature="0" /></clipPath><pattern
       id="pattern320"
       height="320"
       width="1440"
       y="0"
       x="0"
       patternUnits="userSpaceOnUse"><g
         id="g322" /><g
         id="g324"><g
           id="g326"
           clip-path="url(#clipPath316)"><g
             id="g328"><path
               id="path330"
               style="fill:#000000;fill-opacity:1;fill-rule:nonzero;stroke:none"
               d="m 116.641,141.145 c 7.992,-11.653 -1.664,-13.985 -16.481,-13.817 -14.816,0.164 -19.562,-0.5 -21.308,2.414 -1.75,2.914 0.914,-5.66 3.66,-6.078 2.746,-0.414 28.3,-0.664 34.547,1.832 6.242,2.496 6.574,4.496 4.742,9.156 -1.832,4.66 -5.41,6.575 -5.16,6.493 z" /></g></g></g></pattern><clipPath
       id="clipPath352"><path
         d="M 0,0 H 1440 V 320 H 0 Z"
         id="path354"
         inkscape:connector-curvature="0" /></clipPath><mask
       id="mask356"><g
         id="g358"><g
           clip-path="url(#clipPath352)"
           id="g360"><path
             d="M 0,0 H 1440 V 320 H 0 Z"
             id="path362"
             style="fill:#000000;fill-opacity:0.2;fill-rule:nonzero;stroke:none"
             inkscape:connector-curvature="0" /></g></g></mask><clipPath
       id="clipPath368"><path
         d="M 0,0 H 1440 V 320 H 0 Z"
         id="path370"
         inkscape:connector-curvature="0" /></clipPath><clipPath
       id="clipPath372"><path
         d="M 0,0 H 1440 V 320 H 0 Z"
         id="path374"
         inkscape:connector-curvature="0" /></clipPath><pattern
       id="pattern376"
       height="320"
       width="1440"
       y="0"
       x="0"
       patternUnits="userSpaceOnUse"><g
         id="g378" /><g
         id="g380"><g
           id="g382"
           clip-path="url(#clipPath372)"><g
             id="g384"><path
               id="path386"
               style="fill:#000000;fill-opacity:1;fill-rule:nonzero;stroke:none"
               d="m 134.754,269.227 c 5.066,-7.391 -1.055,-8.868 -10.449,-8.762 -9.395,0.105 -12.407,-0.317 -13.512,1.531 -1.109,1.844 0.578,-3.59 2.32,-3.855 1.742,-0.262 17.946,-0.422 21.903,1.164 3.961,1.582 4.172,2.847 3.011,5.804 -1.164,2.953 -3.433,4.168 -3.273,4.118 z" /></g></g></g></pattern><clipPath
       id="clipPath422"><path
         d="M 0,0 H 1440 V 320 H 0 Z"
         id="path424"
         inkscape:connector-curvature="0" /></clipPath><mask
       id="mask426"><g
         id="g428"><g
           clip-path="url(#clipPath422)"
           id="g430"><path
             d="M 0,0 H 1440 V 320 H 0 Z"
             id="path432"
             style="fill:#000000;fill-opacity:0.2;fill-rule:nonzero;stroke:none"
             inkscape:connector-curvature="0" /></g></g></mask><clipPath
       id="clipPath438"><path
         d="M 0,0 H 1440 V 320 H 0 Z"
         id="path440"
         inkscape:connector-curvature="0" /></clipPath><clipPath
       id="clipPath442"><path
         d="M 0,0 H 1440 V 320 H 0 Z"
         id="path444"
         inkscape:connector-curvature="0" /></clipPath><pattern
       id="pattern446"
       height="320"
       width="1440"
       y="0"
       x="0"
       patternUnits="userSpaceOnUse"><g
         id="g448" /><g
         id="g450"><g
           id="g452"
           clip-path="url(#clipPath442)"><g
             id="g454"><path
               id="path456"
               style="fill:#000000;fill-opacity:1;fill-rule:nonzero;stroke:none"
               d="m 156.828,269.227 c 5.067,-7.391 -1.055,-8.868 -10.449,-8.762 -9.399,0.105 -12.406,-0.317 -13.512,1.531 -1.109,1.844 0.578,-3.59 2.321,-3.855 1.742,-0.262 17.945,-0.422 21.902,1.164 3.961,1.582 4.172,2.847 3.008,5.804 -1.16,2.953 -3.43,4.168 -3.27,4.118 z" /></g></g></g></pattern><clipPath
       id="clipPath478"><path
         d="M 0,0 H 1440 V 320 H 0 Z"
         id="path480"
         inkscape:connector-curvature="0" /></clipPath><mask
       id="mask482"><g
         id="g484"><g
           clip-path="url(#clipPath478)"
           id="g486"><path
             d="M 0,0 H 1440 V 320 H 0 Z"
             id="path488"
             style="fill:#000000;fill-opacity:0.2;fill-rule:nonzero;stroke:none"
             inkscape:connector-curvature="0" /></g></g></mask><clipPath
       id="clipPath494"><path
         d="M 0,0 H 1440 V 320 H 0 Z"
         id="path496"
         inkscape:connector-curvature="0" /></clipPath><clipPath
       id="clipPath498"><path
         d="M 0,0 H 1440 V 320 H 0 Z"
         id="path500"
         inkscape:connector-curvature="0" /></clipPath><pattern
       id="pattern502"
       height="320"
       width="1440"
       y="0"
       x="0"
       patternUnits="userSpaceOnUse"><g
         id="g504" /><g
         id="g506"><g
           id="g508"
           clip-path="url(#clipPath498)"><g
             id="g510"><path
               id="path512"
               style="fill:#000000;fill-opacity:1;fill-rule:nonzero;stroke:none"
               d="m 225.184,53.727 c 10.726,-15.641 -2.235,-18.77 -22.122,-18.547 -19.886,0.222 -26.257,-0.672 -28.601,3.238 -2.348,3.91 1.227,-7.598 4.914,-8.156 3.687,-0.559 37.988,-0.891 46.367,2.461 8.379,3.351 8.828,6.031 6.371,12.289 -2.461,6.258 -7.265,8.828 -6.929,8.715 z" /></g></g></g></pattern><clipPath
       id="clipPath548"><path
         d="M 0,0 H 1440 V 320 H 0 Z"
         id="path550"
         inkscape:connector-curvature="0" /></clipPath><mask
       id="mask552"><g
         id="g554"><g
           clip-path="url(#clipPath548)"
           id="g556"><path
             d="M 0,0 H 1440 V 320 H 0 Z"
             id="path558"
             style="fill:#000000;fill-opacity:0.2;fill-rule:nonzero;stroke:none"
             inkscape:connector-curvature="0" /></g></g></mask><clipPath
       id="clipPath564"><path
         d="M 0,0 H 1440 V 320 H 0 Z"
         id="path566"
         inkscape:connector-curvature="0" /></clipPath><clipPath
       id="clipPath568"><path
         d="M 0,0 H 1440 V 320 H 0 Z"
         id="path570"
         inkscape:connector-curvature="0" /></clipPath><pattern
       id="pattern572"
       height="320"
       width="1440"
       y="0"
       x="0"
       patternUnits="userSpaceOnUse"><g
         id="g574" /><g
         id="g576"><g
           id="g578"
           clip-path="url(#clipPath568)"><g
             id="g580"><path
               id="path582"
               style="fill:#000000;fill-opacity:1;fill-rule:nonzero;stroke:none"
               d="m 271.914,53.727 c 10.727,-15.641 -2.234,-18.77 -22.121,-18.547 -19.891,0.222 -26.258,-0.672 -28.605,3.238 -2.344,3.91 1.23,-7.598 4.917,-8.156 3.688,-0.559 37.989,-0.891 46.368,2.461 8.379,3.351 8.824,6.031 6.367,12.289 -2.457,6.258 -7.262,8.828 -6.926,8.715 z" /></g></g></g></pattern><clipPath
       id="clipPath604"><path
         d="M 0,0 H 1440 V 320 H 0 Z"
         id="path606"
         inkscape:connector-curvature="0" /></clipPath><mask
       id="mask608"><g
         id="g610"><g
           clip-path="url(#clipPath604)"
           id="g612"><path
             d="M 0,0 H 1440 V 320 H 0 Z"
             id="path614"
             style="fill:#000000;fill-opacity:0.2;fill-rule:nonzero;stroke:none"
             inkscape:connector-curvature="0" /></g></g></mask><clipPath
       id="clipPath620"><path
         d="M 0,0 H 1440 V 320 H 0 Z"
         id="path622"
         inkscape:connector-curvature="0" /></clipPath><clipPath
       id="clipPath624"><path
         d="M 0,0 H 1440 V 320 H 0 Z"
         id="path626"
         inkscape:connector-curvature="0" /></clipPath><pattern
       id="pattern628"
       height="320"
       width="1440"
       y="0"
       x="0"
       patternUnits="userSpaceOnUse"><g
         id="g630" /><g
         id="g632"><g
           id="g634"
           clip-path="url(#clipPath624)"><g
             id="g636"><path
               id="path638"
               style="fill:#000000;fill-opacity:1;fill-rule:nonzero;stroke:none"
               d="m 502.84,256.66 c 5.199,-7.582 -1.082,-9.098 -10.723,-8.992 -9.64,0.109 -12.73,-0.324 -13.867,1.57 -1.137,1.899 0.598,-3.679 2.383,-3.953 1.789,-0.269 18.414,-0.433 22.476,1.192 4.063,1.625 4.282,2.925 3.09,5.957 -1.191,3.035 -3.523,4.281 -3.359,4.226 z" /></g></g></g></pattern><clipPath
       id="clipPath674"><path
         d="M 0,0 H 1440 V 320 H 0 Z"
         id="path676"
         inkscape:connector-curvature="0" /></clipPath><mask
       id="mask678"><g
         id="g680"><g
           clip-path="url(#clipPath674)"
           id="g682"><path
             d="M 0,0 H 1440 V 320 H 0 Z"
             id="path684"
             style="fill:#000000;fill-opacity:0.2;fill-rule:nonzero;stroke:none"
             inkscape:connector-curvature="0" /></g></g></mask><clipPath
       id="clipPath690"><path
         d="M 0,0 H 1440 V 320 H 0 Z"
         id="path692"
         inkscape:connector-curvature="0" /></clipPath><clipPath
       id="clipPath694"><path
         d="M 0,0 H 1440 V 320 H 0 Z"
         id="path696"
         inkscape:connector-curvature="0" /></clipPath><pattern
       id="pattern698"
       height="320"
       width="1440"
       y="0"
       x="0"
       patternUnits="userSpaceOnUse"><g
         id="g700" /><g
         id="g702"><g
           id="g704"
           clip-path="url(#clipPath694)"><g
             id="g706"><path
               id="path708"
               style="fill:#000000;fill-opacity:1;fill-rule:nonzero;stroke:none"
               d="m 525.492,256.66 c 5.199,-7.582 -1.082,-9.098 -10.722,-8.992 -9.641,0.109 -12.731,-0.324 -13.868,1.57 -1.136,1.899 0.598,-3.679 2.383,-3.953 1.789,-0.269 18.418,-0.433 22.477,1.192 4.062,1.625 4.281,2.925 3.09,5.957 -1.192,3.035 -3.52,4.281 -3.36,4.226 z" /></g></g></g></pattern><clipPath
       id="clipPath730"><path
         d="M 0,0 H 1440 V 320 H 0 Z"
         id="path732"
         inkscape:connector-curvature="0" /></clipPath><mask
       id="mask734"><g
         id="g736"><g
           clip-path="url(#clipPath730)"
           id="g738"><path
             d="M 0,0 H 1440 V 320 H 0 Z"
             id="path740"
             style="fill:#000000;fill-opacity:0.2;fill-rule:nonzero;stroke:none"
             inkscape:connector-curvature="0" /></g></g></mask><clipPath
       id="clipPath746"><path
         d="M 0,0 H 1440 V 320 H 0 Z"
         id="path748"
         inkscape:connector-curvature="0" /></clipPath><clipPath
       id="clipPath750"><path
         d="M 0,0 H 1440 V 320 H 0 Z"
         id="path752"
         inkscape:connector-curvature="0" /></clipPath><pattern
       id="pattern754"
       height="320"
       width="1440"
       y="0"
       x="0"
       patternUnits="userSpaceOnUse"><g
         id="g756" /><g
         id="g758"><g
           id="g760"
           clip-path="url(#clipPath750)"><g
             id="g762"><path
               id="path764"
               style="fill:#000000;fill-opacity:1;fill-rule:nonzero;stroke:none"
               d="m 453.883,89.5 c 8.055,-11.746 -1.68,-14.098 -16.613,-13.93 -14.938,0.168 -19.719,-0.504 -21.481,2.434 -1.762,2.937 0.922,-5.707 3.691,-6.125 2.77,-0.418 28.528,-0.672 34.821,1.848 6.293,2.515 6.629,4.531 4.785,9.226 -1.848,4.699 -5.457,6.629 -5.203,6.547 z" /></g></g></g></pattern><clipPath
       id="clipPath800"><path
         d="M 0,0 H 1440 V 320 H 0 Z"
         id="path802"
         inkscape:connector-curvature="0" /></clipPath><mask
       id="mask804"><g
         id="g806"><g
           clip-path="url(#clipPath800)"
           id="g808"><path
             d="M 0,0 H 1440 V 320 H 0 Z"
             id="path810"
             style="fill:#000000;fill-opacity:0.2;fill-rule:nonzero;stroke:none"
             inkscape:connector-curvature="0" /></g></g></mask><clipPath
       id="clipPath816"><path
         d="M 0,0 H 1440 V 320 H 0 Z"
         id="path818"
         inkscape:connector-curvature="0" /></clipPath><clipPath
       id="clipPath820"><path
         d="M 0,0 H 1440 V 320 H 0 Z"
         id="path822"
         inkscape:connector-curvature="0" /></clipPath><pattern
       id="pattern824"
       height="320"
       width="1440"
       y="0"
       x="0"
       patternUnits="userSpaceOnUse"><g
         id="g826" /><g
         id="g828"><g
           id="g830"
           clip-path="url(#clipPath820)"><g
             id="g832"><path
               id="path834"
               style="fill:#000000;fill-opacity:1;fill-rule:nonzero;stroke:none"
               d="m 488.977,89.5 c 8.054,-11.746 -1.68,-14.098 -16.614,-13.93 -14.937,0.168 -19.718,-0.504 -21.48,2.434 -1.762,2.937 0.922,-5.707 3.691,-6.125 2.77,-0.418 28.528,-0.672 34.821,1.848 6.293,2.515 6.628,4.531 4.781,9.226 -1.844,4.699 -5.453,6.629 -5.199,6.547 z" /></g></g></g></pattern></defs><g
     id="g6307"
     transform="translate(-443.32098,-83.294289)"><g
       id="g11733"
       transform="matrix(4.5395627,0,0,4.5395627,-6903.2795,-2129.2893)"><g
         id="g1"
         transform="matrix(2.6821403,0,0,2.6821403,-2817.1526,-929.95827)"><path
           id="path3298-6-5-2-4"
           d="m 1688.3588,558.25412 c 0,1.88217 -6.096,3.4079 -13.6159,3.4079 -7.5198,0 -13.6159,-1.52573 -13.6159,-3.4079 0,-1.88208 6.0961,-3.40786 13.6159,-3.40786 7.5199,0 13.6159,1.52578 13.6159,3.40786 z"
           style="color:#000000;display:none;overflow:visible;visibility:visible;fill:none;stroke:#000000;stroke-width:1.49705;stroke-linecap:round;stroke-linejoin:round;stroke-miterlimit:4;stroke-dashoffset:0;stroke-opacity:1;marker:none;enable-background:accumulate"
           inkscape:connector-curvature="0" /><path
           style="color:#000000;display:none;overflow:visible;visibility:visible;fill:none;stroke:#000000;stroke-width:1.49705;stroke-linecap:round;stroke-linejoin:round;stroke-miterlimit:4;stroke-dasharray:none;stroke-dashoffset:0;stroke-opacity:1;marker:none;enable-background:accumulate"
           d="m 1674.743,553.33481 c -9.8893,0 -17.9078,2.35224 -17.9078,5.2473 0,2.89502 8.0185,5.23279 17.9078,5.23279 9.8892,0 17.9077,-2.33777 17.9077,-5.23279 0,-2.89506 -8.0185,-5.2473 -17.9077,-5.2473 z"
           id="path3300-9-8-3-3"
           inkscape:connector-curvature="0"
           sodipodi:nodetypes="sssss" /><g
           id="g8744-1-2-0-2"
           transform="matrix(0.04150332,0,0,0.04150332,1603.2967,489.76282)"
           style="fill:#ffffff;fill-opacity:1;stroke:#ffffff;stroke-opacity:1;stroke-width:1.58311199;stroke-dasharray:none"><path
             style="fill:#ffffff;fill-opacity:1;stroke:#ffffff;stroke-width:2.87579;stroke-linecap:round;stroke-linejoin:bevel;stroke-dasharray:none;stroke-opacity:1"
             d="m 1233.9835,992.50547 c -1.9927,-0.0317 -4.4086,-0.54983 -5.1775,-2.65181 -0.8102,-1.89001 -0.2709,-4.23911 1.1821,-5.67296 -4.191,-5.17937 -5.119,-12.71747 -2.2969,-18.75271 2.8702,-6.4464 9.7886,-10.79256 16.8451,-10.52902 7.4646,0.0728 14.4996,5.32963 16.7124,12.45589 1.7567,5.27936 0.8285,11.30035 -2.3172,15.87312 2.2095,1.13367 4.508,3.53862 3.6214,6.22354 -0.9715,2.46431 -3.9895,2.75828 -6.2816,2.97815 -3.5042,0.0111 -7.0463,0.35099 -10.5251,-0.18073 -1.6923,-0.29108 -3.4582,0.39785 -5.2061,0.23001 -2.1847,0.0187 -4.3726,0.11001 -6.5566,0.0265 z m 6.922,-1.79532 c -3.6536,-0.7152 -7.1181,-2.4916 -9.7057,-5.18872 -1.5964,1.30073 -1.3514,4.72617 1.0146,5.01826 2.8657,0.41317 5.8037,0.17857 8.6911,0.17046 z m 15.3285,-0.0378 c 1.6427,-0.23365 3.9634,-0.17788 4.7193,-1.95291 0.2596,-2.25973 -2.0564,-3.62823 -3.8306,-4.42056 -3.6089,-1.50748 -8.1476,-1.67546 -11.4524,0.65116 -1.7074,1.10438 -2.2766,4.17434 -0.3482,5.32494 2.6131,0.83893 5.4224,0.37141 8.1217,0.46542 0.9302,-0.0165 1.8611,-0.0201 2.7902,-0.068 z m -13.8033,-1.76525 c -0.5305,-2.72178 1.3336,-5.30716 3.78,-6.32128 3.4246,-1.55802 7.4545,-1.46608 10.9437,-0.16057 4.3058,-5.71037 4.0586,-14.28809 -0.5731,-19.73917 -4.1921,-5.28499 -11.8581,-7.31331 -18.1338,-4.88789 -6.2052,2.21787 -10.5966,8.55166 -10.4956,15.13706 -0.1103,6.93347 4.7993,13.56314 11.4819,15.4488 0.9163,0.20883 2.2064,0.68308 2.9969,0.52305 z"
             id="path27" /></g><path
           style="opacity:1;fill:#ffffff;fill-opacity:1;stroke:#ffffff;stroke-width:0.119355;stroke-linecap:round;stroke-linejoin:bevel;stroke-dasharray:none;stroke-opacity:1"
           d="m 1655.6489,530.49369 c 0.011,-0.032 0.029,-0.0392 0.058,-0.0347 0.1198,-0.005 0.242,0.005 0.3591,-0.0251 0.083,-0.0173 0.095,-0.12197 0.033,-0.17027 -0.098,-0.0934 -0.2369,-0.12257 -0.3681,-0.12669 0.011,-0.019 -0.014,-0.0644 0.013,-0.0632 0.082,-0.004 0.1615,0.0131 0.2378,0.0389 0.1735,-0.23338 0.1687,-0.57979 -0.013,-0.8083 -0.1868,-0.25275 -0.562,-0.33407 -0.839,-0.18757 -0.097,0.0493 -0.1788,0.12473 -0.2434,0.21112 -0.029,0.0281 -0.1345,0.0353 -0.072,-0.0234 0.129,-0.19088 0.3477,-0.32247 0.5794,-0.33151 0.1308,-0.008 0.2628,0.0173 0.3784,0.0799 0.2453,0.12161 0.4129,0.38658 0.4071,0.66165 0,0.1499 -0.044,0.29855 -0.1272,0.42314 0.057,0.0529 0.142,0.10188 0.1503,0.19133 0.018,0.0843 -0.051,0.15391 -0.129,0.17129 -0.1266,0.03 -0.2586,0.0239 -0.388,0.0271 -0.021,-0.002 -0.07,0.0117 -0.043,-0.0226 0,-0.004 0,-0.006 0.011,-0.0112 z"
           id="path69" /><path
           style="opacity:1;fill:#ffffff;fill-opacity:1;stroke:#ffffff;stroke-width:0.119355;stroke-linecap:round;stroke-linejoin:bevel;stroke-dasharray:none;stroke-opacity:1"
           d="m 1654.0766,530.123 c -0.087,-0.0204 -0.1333,-0.11416 -0.1189,-0.19839 -0.011,-0.0642 0.089,-0.11197 0.036,-0.16352 -0.1799,-0.2486 -0.1832,-0.61092 0,-0.85985 0.1456,-0.20526 0.399,-0.3353 0.6521,-0.31441 0.2416,0.005 0.4604,0.1546 0.5938,0.34972 -0.024,0.006 -0.048,0.0147 -0.073,0.0221 -0.1143,-0.16875 -0.3056,-0.28719 -0.511,-0.29713 -0.2452,-0.0274 -0.4931,0.10312 -0.6223,0.31071 -0.1415,0.21931 -0.1353,0.52314 0.015,0.73647 0.037,0.0554 0.084,0.10166 0.1313,0.14819 -0.011,0.0206 -0.013,0.0587 -0.025,0.0683 -0.03,-0.024 -0.059,-0.0495 -0.088,-0.0745 -0.051,0.0441 -0.059,0.13968 -0.011,0.18784 0.024,0.0328 0.091,0.005 0.074,0.0589 0.011,0.0484 -0.022,0.0356 -0.054,0.0255 z"
           id="path79" /></g></g></g></svg>
